<svg xmlns="http://www.w3.org/2000/svg" viewBox="0 0 43 43">
<g>
<path className="Git-svg" d="M34,0H9A9,9,0,0,0,0,9V34a9,9,0,0,0,9,9H34a9,9,0,0,0,9-9V9A9,9,0,0,0,34,0ZM27.47,40.36c-1,.19-1.26-.41-1.26-.93V34.11a4.69,4.69,0,0,0-1.3-3.59c4.21-.48,8.64-2.12,8.64-9.58a7.57,7.57,0,0,0-1.95-5.2,7.11,7.11,0,0,0-.18-5.14s-1.59-.52-5.2,2a17.61,17.61,0,0,0-9.48,0c-3.61-2.51-5.2-2-5.2-2a7.19,7.19,0,0,0-.19,5.14,7.6,7.6,0,0,0-1.95,5.2c0,7.44,4.42,9.1,8.62,9.59a4.19,4.19,0,0,0-1.2,2.6,4,4,0,0,1-5.5-1.62,4,4,0,0,0-2.9-2s-1.85,0-.13,1.18a5.12,5.12,0,0,1,2.1,2.84s1.09,3.46,6.36,2.29v3.61c0,.51-.31,1.11-1.25.93A19.35,19.35,0,0,1,2.56,22,19.16,19.16,0,0,1,21.48,2.56,19.16,19.16,0,0,1,40.4,22,19.37,19.37,0,0,1,27.47,40.36Z"/></g></svg>