
<svg xmlns="http://www.w3.org/2000/svg" viewBox="0 0 300 29.3"><defs>
</defs>
<g id="Layer1" data-name="Layer1">
<path class="Header-SVG" d="M34,29H24.93v-15l-8.86,5.77L7.21,13.91V29.05H0V0L16.17,11.23,32.25,0V20.81L34,22.46Z"/>
<path class="Header-SVG" d="M68.51,29H60.58l-1.24-2.47H49.86l3-6.18h3.4l-2.47-5.05L46.88,29h-8L49.45,9.07l-.93-1.86L51.92.93h1.86Z"/>
<path class="Header-SVG" d="M81.59,29H74.28V9.07L72.53,7.42V.93h9V29.05h.1Zm19,0H93.34V17.62H82l3-6.29h8.35V.93h7.21Z"/>
<path class="Header-SVG" d="M135.06,29h-7.93l-1.24-2.47h-9.48l3-6.18h3.4l-2.47-5.05L113.43,29h-8L116,9.07l-.92-1.86,3.4-6.28h1.85Z"/>
<path class="Header-SVG" d="M155.15,29h-8.86V7.21h-9.58l3-6.28h20.19l3,6.28H153.4v13.6l1.65,1.65v6.59h.1Z"/>
<path class="Header-SVG" d="M176.89,29h-7.32V9.07l-1.75-1.65V.93h9V29.05h.1Zm18.85,0h-7.21V17.62H177.2l3-6.29h8.34V.93h7.21Z"/>
<path class="Header-SVG" d="M250.76,29h-9.07v-15l-8.86,5.77L224,13.91V29.05h-7.42V0l16.28,11.23L249,0V20.81l1.76,1.65v6.59h0Z"/>
<path class="Header-SVG" d="M284.86,29.36a15.85,15.85,0,0,1-7.42-1.54A10.15,10.15,0,0,1,273,23.7a12,12,0,0,1-1.34-6.19V.93H279V17.41a5.44,5.44,0,0,0,1.55,4A5.82,5.82,0,0,0,285,23.08a5.48,5.48,0,0,0,4.43-1.65,5.59,5.59,0,0,0,1.54-4V.93H300V7.52l-1.65,1.65v8.55A15,15,0,0,1,297,23.9,8.27,8.27,0,0,1,292.58,28,21.86,21.86,0,0,1,284.86,29.36Z"/>
</g>
</svg>