<?xml version="1.0" encoding="utf-8"?>
<!-- Generator: Adobe Illustrator 24.1.1, SVG Export Plug-In . SVG Version: 6.00 Build 0)  -->
<svg version="1.1" id="Layer_1" xmlns="http://www.w3.org/2000/svg" xmlns:xlink="http://www.w3.org/1999/xlink" x="0px" y="0px"
	 viewBox="0 0 392.6 351.4" style="enable-background:new 0 0 392.6 351.4;" xml:space="preserve">
<style type="text/css">
	.st0{fill:none;stroke:#777777;stroke-width:1.6314;}
	.st1{fill:#E1E4E5;stroke:#E1E4E5;stroke-width:1.111;}
	.st2{fill-rule:evenodd;clip-rule:evenodd;fill:#E1E4E5;}
	.st3{fill:#002841;}
	.st4{fill:#F8AE9D;}
	.st5{fill:#FFFFFF;}
	.st6{fill:#CC6144;}
</style>
<g>
	<g>
		<path className="st0" d="M260.8,39.2v92.3c0,6.8-5.5,12.2-12.2,12.2l0,0H30.9c-6.8,0-12.2-5.5-12.2-12.2l0,0V39.2
			c0-6.8,5.5-12.2,12.2-12.2l0,0h217.7C255.3,27,260.8,32.5,260.8,39.2z"/>
		<path className="st0" d="M260.8,39.2c0,1.7-1.3,3.1-3.1,3.1l0,0h-236c-1.7,0-3.1-1.3-3.1-3.1c0-6.8,5.5-12.2,12.2-12.2h217.7
			C255.3,27,260.8,32.5,260.8,39.2z"/>
		<path className="st1" d="M34.4,34.9c0,1.3-1.1,2.5-2.5,2.5c-1.3,0-2.5-1.1-2.5-2.5c0-1.3,1.1-2.5,2.5-2.5l0,0
			C33.3,32.5,34.4,33.6,34.4,34.9z M43.9,34.9c0,1.3-1.1,2.5-2.5,2.5S39,36.3,39,34.9c0-1.3,1.1-2.5,2.5-2.5S43.9,33.6,43.9,34.9
			L43.9,34.9z M53.5,34.9c0,1.3-1.1,2.5-2.5,2.5s-2.5-1.1-2.5-2.5c0-1.3,1.1-2.5,2.5-2.5S53.5,33.6,53.5,34.9z"/>
		<path className="st2" d="M71.8,71.4h-2.5c-0.6,0-1.1-0.5-1.1-1.1l0,0v-2.5c0-0.6,0.5-1.1,1.1-1.1l0,0h2.5c0.6,0,1.1,0.5,1.1,1.1v2.5
			C72.8,70.9,72.4,71.4,71.8,71.4L71.8,71.4z M63.2,71.4h-2.5c-0.6,0-1.1-0.5-1.1-1.1v-2.5c0-0.6,0.5-1.1,1.1-1.1l0,0h2.5
			c0.6,0,1.1,0.5,1.1,1.1v2.5C64.3,70.9,63.8,71.4,63.2,71.4L63.2,71.4L63.2,71.4z M54.6,71.4h-2.5c-0.6,0-1.1-0.5-1.1-1.1v-2.5
			c0-0.6,0.5-1.1,1.1-1.1l0,0h2.5c0.6,0,1.1,0.5,1.1,1.1l0,0v2.5C55.7,70.9,55.2,71.4,54.6,71.4L54.6,71.4L54.6,71.4z M46,71.4h-2.5
			c-0.6,0-1.1-0.5-1.1-1.1v-2.5c0-0.6,0.5-1.1,1.1-1.1l0,0H46c0.6,0,1.1,0.5,1.1,1.1v2.5C47.2,70.9,46.7,71.4,46,71.4L46,71.4
			L46,71.4z M37.5,71.4H35c-0.6,0-1.1-0.5-1.1-1.1v-2.5c0-0.6,0.5-1.1,1.1-1.1l0,0h2.5c0.6,0,1.1,0.5,1.1,1.1v2.5
			C38.6,70.9,38.1,71.4,37.5,71.4L37.5,71.4L37.5,71.4z M62.9,62.1h-2.5c-0.6,0-1.1-0.5-1.1-1.1v-2.5c0-0.6,0.5-1.1,1.1-1.1h2.5
			c0.6,0,1.1,0.5,1.1,1.1V61C64,61.6,63.5,62.1,62.9,62.1L62.9,62.1L62.9,62.1z M54.3,62.1h-2.5c-0.6,0-1.1-0.5-1.1-1.1v-2.5
			c0-0.6,0.5-1.1,1.1-1.1h2.5c0.6,0,1.1,0.5,1.1,1.1V61C55.4,61.6,54.9,62.1,54.3,62.1L54.3,62.1L54.3,62.1z M45.8,62.1h-2.5
			c-0.6,0-1.1-0.5-1.1-1.1v-2.5c0-0.6,0.5-1.1,1.1-1.1h2.5c0.6,0,1.1,0.5,1.1,1.1V61C46.8,61.6,46.3,62.1,45.8,62.1L45.8,62.1z
			 M54.6,81.5h-2.5c-0.6,0-1.1-0.5-1.1-1.1V78c0-0.6,0.5-1.1,1.1-1.1l0,0h2.5c0.6,0,1.1,0.5,1.1,1.1l0,0v2.5
			C55.7,81,55.2,81.5,54.6,81.5L54.6,81.5L54.6,81.5z M46,81.5h-2.5c-0.6,0-1.1-0.5-1.1-1.1V78c0-0.6,0.5-1.1,1.1-1.1l0,0H46
			c0.6,0,1.1,0.5,1.1,1.1v2.5C47.2,81,46.7,81.5,46,81.5L46,81.5L46,81.5z"/>
	</g>
	<g id="Layer_2_2_">
		<g id="bd9e156c-4ae5-43bd-909a-1d43618968d1_1_">
			<path className="st3" d="M54.5,137.1h35.3c0.1,0,0.1,0,0.1,0l-16.7-28.9c-0.4-0.6-1.1-0.8-1.6-0.4c-0.2,0.1-0.4,0.3-0.4,0.4L60,127.6
				l-0.6,0.9L54.5,137.1z"/>
			<path className="st3" d="M34.8,137.1h30.6l-5.9-8.6l-0.4-0.6l-7.7-11.2c-0.5-0.7-1.7-0.8-2.3-0.1c-0.1,0.1-0.1,0.1-0.1,0.1
				L34.8,137.1z"/>
			<circle className="st3" cx="57.9" cy="109.8" r="5.2"/>
		</g>
	</g>
</g>
<g>
	<g>
		<path className="st2" d="M371.5,68h-6.4c-1.5,0-2.7-1.3-2.7-2.7l0,0v-6.4c0-1.5,1.3-2.7,2.7-2.7l0,0h6.4c1.5,0,2.7,1.3,2.7,2.7v6.4
			C374.2,66.7,373.1,68,371.5,68L371.5,68z M349.3,68h-6.4c-1.5,0-2.7-1.3-2.7-2.7v-6.4c0-1.5,1.3-2.7,2.7-2.7l0,0h6.4
			c1.5,0,2.7,1.3,2.7,2.7v6.4C352.2,66.7,350.9,68,349.3,68L349.3,68L349.3,68z M327.1,68h-6.5c-1.5,0-2.7-1.3-2.7-2.7v-6.4
			c0-1.5,1.3-2.7,2.7-2.7l0,0h6.4c1.5,0,2.7,1.3,2.7,2.7l0,0v6.4C329.8,66.7,328.6,68,327.1,68C327.1,68,326.9,68,327.1,68L327.1,68
			z M304.9,68h-6.4c-1.5,0-2.7-1.3-2.7-2.7v-6.4c0-1.5,1.3-2.7,2.7-2.7l0,0h6.4c1.5,0,2.7,1.3,2.7,2.7v6.4
			C307.8,66.7,306.6,68,304.9,68L304.9,68L304.9,68z M282.7,68h-6.4c-1.5,0-2.7-1.3-2.7-2.7v-6.4c0-1.6,1.3-2.7,2.7-2.7l0,0h6.4
			c1.5,0,2.7,1.3,2.7,2.7v6.4C285.7,66.7,284.4,68,282.7,68L282.7,68L282.7,68z M348.6,43.8H342c-1.5,0-2.7-1.3-2.7-2.7v-6.4
			c0-1.5,1.3-2.7,2.7-2.7h6.4c1.5,0,2.7,1.3,2.7,2.7v6.4C351.3,42.5,350,43.8,348.6,43.8C348.4,43.8,348.4,43.8,348.6,43.8
			L348.6,43.8z M326.4,43.8H320c-1.5,0-2.7-1.3-2.7-2.7v-6.4c0-1.5,1.3-2.7,2.7-2.7h6.4c1.5,0,2.7,1.3,2.7,2.7v6.4
			C329.1,42.5,327.8,43.8,326.4,43.8C326.4,43.8,326.2,43.8,326.4,43.8L326.4,43.8z M304.2,43.8h-6.4c-1.5,0-2.7-1.3-2.7-2.7v-6.4
			c0-1.5,1.3-2.7,2.7-2.7h6.4c1.5,0,2.7,1.3,2.7,2.7v6.4C306.9,42.5,305.7,43.8,304.2,43.8L304.2,43.8z M327.1,94h-6.5
			c-1.5,0-2.7-1.3-2.7-2.7v-6.4c0-1.5,1.3-2.7,2.7-2.7l0,0h6.4c1.5,0,2.7,1.3,2.7,2.7l0,0v6.4C329.8,92.7,328.6,94,327.1,94
			C327.1,94,326.9,94,327.1,94L327.1,94z M304.9,94h-6.4c-1.5,0-2.7-1.3-2.7-2.7v-6.4c0-1.5,1.3-2.7,2.7-2.7l0,0h6.4
			c1.5,0,2.7,1.3,2.7,2.7v6.4C307.8,92.7,306.6,94,304.9,94L304.9,94L304.9,94z"/>
	</g>
	<g id="Layer_2_3_">
		<g id="bd9e156c-4ae5-43bd-909a-1d43618968d1_2_">
			<path className="st3" d="M80,259.8h120.5c0.2,0,0.2,0,0.5,0l-57.1-98.6c-1.2-1.9-3.6-2.6-5.5-1.4c-0.7,0.2-1.2,1-1.4,1.4l-38.2,66.2
				l-1.9,3.1L80,259.8z"/>
			<path className="st3" d="M12.8,259.8h104.4L97,230.5l-1.4-2.2l-26.4-38.2c-1.7-2.4-5.8-2.6-7.9-0.5c-0.2,0.2-0.2,0.2-0.5,0.5
				L12.8,259.8z"/>
			<circle className="st3" cx="91.5" cy="166.5" r="17.8"/>
		</g>
	</g>
</g>
<g id="Layer_2_1_">
	<g id="bd9e156c-4ae5-43bd-909a-1d43618968d1">
		<path className="st4" d="M266.9,200.4c2.9,4.6,10.5,9.9,15.9,9.8c18.3-0.3,24.4-12.8,26.3-17.4c-0.4-0.1-1-0.2-1.4-0.2
			c-3.4-0.5-6.8-3.8-7.8-7.6c-1.3-4.9-2.9-14.5-2.7-20.5L274,177.4c0,1.8,0.2,3.7,0.3,5.6c0.1,1.2,0.2,2.3,0.4,3.5
			c0.1,1.1,0.3,2.1,0.4,3c0.4,3.2-1,6.3-3.7,8.1L266.9,200.4L266.9,200.4z"/>
		<path className="st3" d="M264.9,150.6c1.3,3.3,0.7,7-0.5,10.3c-0.9,2.3-2.9,0.3-5.4,0.3c-3.8,0.1-6.8-3.9-9.2-14.5
			c-1.5-7.8-1.8-11.7-1.5-12.5c1.1-2.7,4.6-4.1,7.4-4.4"/>
		<path className="st4" d="M259.1,127.3c-6.1,7.3-8.3,27.8-3.1,42.2c3.6,10.2,7.9,16.7,12.8,16.5c7.5-0.3,22-6.5,26.7-11.6
			c8.5-9.3,6-27.4,4.3-38.8c-1.6-10.4-6.4-23.8-19.5-21.3C271.7,115.9,264.5,120.7,259.1,127.3L259.1,127.3z"/>
		<path className="st3" d="M293.4,135.3c-1.4,1.7-3.7,2.1-5.7,2.4c-2.6,0.5-3.9,1.4-5.3,4c-0.9,1.6-1.7,3.4-3.3,4.3
			c-1.3,0.7-1.2-1.1-1.4-2.6c0-0.1,0-0.2-0.1-0.4c-0.3-1.1-1.5-0.9-1.9,0.2c-0.3,1-1,1.8-2,2.3c-0.1,0.1-0.3,0.1-0.5,0.1
			c-0.2-0.1-0.4-0.2-0.5-0.4c-0.3-0.4-0.6-0.9-0.9-1.4c-1-1.6-2.8-1-3.9,0.5c-0.7,1-1.5,2-2.6,2.2c-0.4,0.1-0.8,0-1-0.3
			c-0.2-0.4,0.1-0.8,0.1-1.3c-0.1-0.3-0.2-0.6-0.4-0.9c-0.6-1-1.9-1.4-2.9-0.8c-0.2,0.1-0.4,0.3-0.6,0.5c-0.7,0.8-1.5,1.5-2.3,2.2
			c-0.3,0.3-0.8,0.6-1.2,0.3c-0.2-0.2-0.3-0.4-0.3-0.7c-0.2-1.2-0.4-2.5-0.6-3.7c-0.1-0.7-0.5-1.6-1.1-1.4c-0.3,0.1-0.5,0.4-0.7,0.7
			s-3.9,4.6-4,4.3c-0.6-2.4-1.8-4.6-2.3-7c-3.7-15.4,12.9-27.8,25.7-27.8c2.7-0.1,5.5,0.1,8.2,0.7c3,0.7,6,1.8,8.7,3.4
			c3.7,2.2,6.6,6.2,5.8,11"/>
		<path className="st3" d="M287.4,130c-1.8,2.1-2.3,5-2.5,7.8c-0.3,4.2,0.1,8.6,2.1,12.3c0.6,1.1,1,6.3,1.8,6c0.3-0.1,0.2-4.2,0.9-6.4
			c1.1-3.4,6.2-4.7,8.5-2.5c3.7,3.4,1.5,7.6,0.3,10.2c-0.7,1.6-1.9,3.3-2.1,5c-0.2,2.1-0.3,9.8,1.1,11.6c1.2,1.5,2.4-5.8,3.4-7.2
			c7.7-10.7,15.1-37.9,1.9-43.7c-2-0.9-8.2-1.4-10.1-0.2 M238.6,346.1c-0.8,0.1-1.5,0.2-2.3,0.3c-4.2,0.1-8.3-0.8-12.5-1.5
			c-3.6-0.6-4.6-1-4.6-5.4c0.7-34.9,5.7-69.5,15-103.2c1.4-5.1,2.9-10.3,5.6-14.9c4.6-7.8,15.2-14.6,23.3-18.4c1.1-0.5,5.9,2.5,7,2
			c1-0.5,1.9-1.2,2.9-1.6c3-1.3,5,1.4,7.5,2.5c1.3,0.6,2.7,0.9,4.1,0.9c1.2,0,2.2-0.7,3.2-0.2c4.7,2.5,16.5-15.7,16.5-15.7l5.1,5.3
			l14.9,15.6l37.2,51.3c0,0,6.8,42,11.4,69.6c0.8,4.8,4,15,4.6,18.6c-0.1-0.8-31.8-1-33.5-1h-64.5c-3.6,0-13.3,1.5-15.9-1.1
			c-3.1-3.3-6.7-18.2-6.9-22.4c-0.6-14.1,0.3-28.1,0.5-42.3c-0.1,5.8-1.7,11-2.5,16.7c-0.9,7.3-2.2,14.6-3.4,21.8
			c-0.9,5.8-1.8,11.6-2.6,17.5c-0.3,2.6,0.1,4.2-2.1,5.2C244.9,346.5,240.8,345.7,238.6,346.1L238.6,346.1z"/>
		<path className="st4" d="M254.3,334c1.7-0.7,12.3-3.3,17.2-4.3c2.5-0.5,13.9-3.5,16.5-3.5s6.2,3.8,6.2,3.8l-1,13
			c-2.5-0.3-5.9,1.1-7.8,1.3s-8,0.3-11.8-1.6c-0.2-0.1-0.4-0.2-0.6-0.3c-1.5,1.4-3.5,2.7-5.6,2.8c0,0-1.7-0.2-1.5-0.8
			c0.7-1.3,1.4-2.5,2.3-3.7c-1.6,1.7-4.3,4.3-7.4,4.5c0,0-1.7-0.2-1.5-0.8c0.9-1.6,1.9-3.2,3-4.7c0,0,0,0-0.1,0
			c-1.4,1.2-4.6,5.3-8.4,5.5c0,0-1.7-0.2-1.5-0.8c0.4-0.8,0.9-1.7,1.5-2.4c-1.1,0.9-2.3,1.6-3.6,2.3c-4.1,2.1-6.4,0.5-6.4,0
			S252.6,334.7,254.3,334z"/>
		<path d="M291.3,319c0,0-6.6,3.8-6,11.7s3,17.2,13,16.3C308.3,346,291.3,319,291.3,319L291.3,319z"/>
		<path className="st3" d="M296.6,346.2c24,8.3,56,0.4,76.3-13.4c12.7-8.6,20.9-19.6,19.5-30.3c-3.5-27.8-25.4-91.6-44.3-100.9
			c-12.9-6.3-28.5-9-37.2-10c-4.1-0.5-6.6-0.6-6.6-0.6l3.2,8.9l15.8,44.5c0.6,26.4,19.5,42.1,15.7,48.3
			c-3.8,6.2-33.5,12.8-49.1,23.3C285.6,318.9,280.1,340,296.6,346.2L296.6,346.2z"/>
		<path className="st5" d="M323.3,244.4c0,5,0.7,10,2,14.9c1.4,4.9,3.2,9.6,5.5,14.1c1.1,2.3,2.3,4.5,3.5,6.7s2.4,4.4,3.5,6.6
			c0.5,1.1,0.9,2.2,1.1,3.4c0.1,0.5,0.1,1.1-0.1,1.6c-0.1,0.2-0.2,0.5-0.3,0.7c-0.2,0.2-0.3,0.4-0.5,0.6c-1.6,1.6-3.9,2.7-6.2,3.8
			c-9.1,4.1-18.7,7.2-27.8,11.3c-4.6,2-9.1,4.3-13.3,7.1l-0.8,0.5c-0.3,0.2-0.5,0.4-0.8,0.6c-0.5,0.5-0.9,1-1.2,1.5
			c-0.6,1.1-1.1,2.3-1.5,3.5c-0.6,2.4-1,4.9-1,7.5c0.2-2.5,0.6-5,1.3-7.4c0.8-2.3,2-4.6,4.2-5.7c4.3-2.6,8.8-4.8,13.4-6.7
			c4.6-1.9,9.3-3.7,14-5.5s9.4-3.5,14-5.6c2.3-1.1,4.6-2.2,6.5-4.1c0.3-0.3,0.5-0.5,0.7-0.8s0.3-0.7,0.4-1c0.2-0.7,0.2-1.4,0.1-2.1
			c-0.2-1.3-0.7-2.5-1.2-3.7c-1.1-2.3-2.3-4.5-3.6-6.7c-1.2-2.2-2.5-4.4-3.6-6.6C327,264.1,323.8,254.4,323.3,244.4L323.3,244.4z"/>
		<path d="M261.2,203.9c2.3,2.3,12.5,9.5,22.2,9.5c1.7,0,3.4-0.2,5.1-0.5c8.1-1.5,15-6.9,19-13.1c0.7-1.1,1.4-2.3,1.9-3.6
			c0.7-1.5,1.2-3.1,1.5-4.7c-4.1-0.5-8-1.5-8.6-2.3c-0.7,4.8-6.6,13.3-15.4,14.9c-1,0.2-2.1,0.3-3.2,0.3l0,0
			c-3.4,0.1-6.7-0.8-9.6-2.6c0,0-4.3-3.3-4.3-3.4L261.2,203.9L261.2,203.9z"/>
		<path className="st5" d="M254.8,307.5c0-0.4,0-0.9,0-1.3s0.1-1,0.1-1.4l0.3-2.7c0.2-1.9,0.3-3.7,0.5-5.6c0.3-3.7,0.5-7.4,0.6-11.2
			c0.2-7.4,0.1-14.9-0.4-22.3c-0.1-2.1-0.3-4.2-0.5-6.2c-0.1-1.1-0.2-2.1-0.3-3.2c-0.1-1-0.3-2.1-0.3-3.1c0-0.7,1-0.7,1.1-0.1
			c0.3,1.8,0.6,3.7,0.7,5.6c0.2,1.9,0.3,3.7,0.5,5.6c0.3,3.7,0.5,7.5,0.5,11.3c0.1,7.5-0.1,15-0.7,22.4c-0.2,2.1-0.4,4.2-0.6,6.3
			c-0.1,1.1-0.3,2.1-0.4,3.2c-0.1,0.5-0.1,0.9-0.2,1.4c-0.1,0.4-0.3,1-0.4,1.6C255,307.7,254.8,307.6,254.8,307.5L254.8,307.5z"/>
		<path className="st6" d="M256.9,162.8c-0.1,0-0.2-0.1-0.1-0.1S257,162.8,256.9,162.8z"/>
		<path className="st3" d="M269,351.2H157.3l-33.6-83.5h111.5L269,351.2z"/>
		<path d="M156,347.9h147.4v3.2H157.3L156,347.9z"/>
		<path className="st5" d="M182,309.2c-1.4-5,1.5-9.1,6.4-9.1s10.2,4.1,11.6,9.1c1.5,5-1.5,9.1-6.4,9.1
			C188.6,318.3,183.4,314.2,182,309.2z"/>
	</g>
</g>
</svg>
