<?xml version="1.0" encoding="utf-8"?>
<!-- Generator: Adobe Illustrator 24.1.1, SVG Export Plug-In . SVG Version: 6.00 Build 0)  -->
<svg version="1.1" id="Layer_1" xmlns="http://www.w3.org/2000/svg" xmlns:xlink="http://www.w3.org/1999/xlink" x="0px" y="0px"
	 viewBox="0 0 369.3 446.1" style="enable-background:new 0 0 369.3 446.1;" xml:space="preserve">
<style type="text/css">
	.st0{fill-rule:evenodd;clip-rule:evenodd;fill:#E1E4E5;}
	.st1{fill:none;stroke:#E1E4E5;stroke-width:1.109;}
	.st2{fill:#E1E4E5;stroke:#E1E4E5;stroke-width:0.7553;}
	.st3{fill:#002841;}
	.st4{fill:none;stroke:#FFFFFF;stroke-width:2.1947;stroke-linecap:round;stroke-linejoin:round;}
	.st5{fill:none;stroke:#E1E4E5;stroke-width:2.0064;}
	.st6{fill:#E1E4E5;stroke:#E1E4E5;stroke-width:1.1795;}
	.st7{fill:none;stroke:#FFFFFF;stroke-width:6.5935;stroke-linecap:round;stroke-linejoin:round;}
	.st8{fill:#3F3D56;}
	.st9{fill:#FFFFFF;}
</style>
<path class="st0" d="M336.2,404.3h-3.5c-0.8,0-1.5-0.7-1.5-1.5l0,0v-3.5c0-0.8,0.7-1.5,1.5-1.5l0,0h3.5c0.8,0,1.5,0.7,1.5,1.5v3.5
	C337.7,403.6,337,404.3,336.2,404.3L336.2,404.3z M324,404.3h-3.5c-0.8,0-1.5-0.7-1.5-1.5v-3.5c0-0.8,0.7-1.5,1.5-1.5l0,0h3.5
	c0.8,0,1.5,0.7,1.5,1.5v3.5C325.5,403.6,324.8,404.3,324,404.3L324,404.3L324,404.3z M311.8,404.3h-3.6c-0.8,0-1.5-0.7-1.5-1.5v-3.5
	c0-0.8,0.7-1.5,1.5-1.5l0,0h3.5c0.8,0,1.5,0.7,1.5,1.5l0,0v3.5C313.2,403.6,312.6,404.3,311.8,404.3
	C311.7,404.3,311.7,404.3,311.8,404.3L311.8,404.3z M299.6,404.3h-3.5c-0.8,0-1.5-0.7-1.5-1.5v-3.5c0-0.8,0.7-1.5,1.5-1.5l0,0h3.5
	c0.8,0,1.5,0.7,1.5,1.5v3.5C301.1,403.6,300.4,404.3,299.6,404.3L299.6,404.3L299.6,404.3z M287.4,404.3h-3.5
	c-0.8,0-1.5-0.7-1.5-1.5v-3.5c0-0.9,0.7-1.5,1.5-1.5l0,0h3.5c0.8,0,1.5,0.7,1.5,1.5v3.5C289,403.6,288.3,404.3,287.4,404.3
	L287.4,404.3L287.4,404.3z M323.6,391H320c-0.8,0-1.5-0.7-1.5-1.5V386c0-0.8,0.7-1.5,1.5-1.5h3.5c0.8,0,1.5,0.7,1.5,1.5v3.5
	C325,390.3,324.4,391,323.6,391C323.5,391,323.5,391,323.6,391L323.6,391z M311.4,391h-3.5c-0.8,0-1.5-0.7-1.5-1.5V386
	c0-0.8,0.7-1.5,1.5-1.5h3.5c0.8,0,1.5,0.7,1.5,1.5v3.5C312.9,390.3,312.2,391,311.4,391C311.3,391,311.3,391,311.4,391L311.4,391z
	 M299.2,391h-3.5c-0.8,0-1.5-0.7-1.5-1.5V386c0-0.8,0.7-1.5,1.5-1.5h3.5c0.8,0,1.5,0.7,1.5,1.5v3.5C300.7,390.3,300,391,299.2,391
	L299.2,391z M311.8,418.6h-3.6c-0.8,0-1.5-0.7-1.5-1.5v-3.5c0-0.8,0.7-1.5,1.5-1.5l0,0h3.5c0.8,0,1.5,0.7,1.5,1.5l0,0v3.5
	C313.2,417.9,312.6,418.6,311.8,418.6C311.7,418.6,311.7,418.6,311.8,418.6L311.8,418.6z M299.6,418.6h-3.5c-0.8,0-1.5-0.7-1.5-1.5
	v-3.5c0-0.8,0.7-1.5,1.5-1.5l0,0h3.5c0.8,0,1.5,0.7,1.5,1.5v3.5C301.1,417.9,300.4,418.6,299.6,418.6L299.6,418.6L299.6,418.6z"/>
<path class="st0" d="M317,64.6h-3.5c-0.8,0-1.5-0.7-1.5-1.5l0,0v-3.5c0-0.8,0.7-1.5,1.5-1.5l0,0h3.5c0.8,0,1.5,0.7,1.5,1.5V63
	C318.6,63.9,317.9,64.6,317,64.6L317,64.6z M304.9,64.6h-3.5c-0.8,0-1.5-0.7-1.5-1.5v-3.5c0-0.8,0.7-1.5,1.5-1.5l0,0h3.5
	c0.8,0,1.5,0.7,1.5,1.5V63C306.4,63.9,305.7,64.6,304.9,64.6C304.8,64.6,304.8,64.6,304.9,64.6L304.9,64.6z M292.7,64.6H289
	c-0.8,0-1.5-0.7-1.5-1.5v-3.5c0-0.8,0.7-1.5,1.5-1.5l0,0h3.5c0.8,0,1.5,0.7,1.5,1.5l0,0V63C294.1,63.9,293.4,64.6,292.7,64.6
	C292.6,64.6,292.6,64.6,292.7,64.6L292.7,64.6z M280.5,64.6H277c-0.8,0-1.5-0.7-1.5-1.5v-3.5c0-0.8,0.7-1.5,1.5-1.5l0,0h3.5
	c0.8,0,1.5,0.7,1.5,1.5V63C282,63.9,281.3,64.6,280.5,64.6C280.4,64.6,280.4,64.6,280.5,64.6L280.5,64.6z M268.3,64.6h-3.5
	c-0.8,0-1.5-0.7-1.5-1.5v-3.5c0-0.9,0.7-1.5,1.5-1.5l0,0h3.5c0.8,0,1.5,0.7,1.5,1.5V63C269.8,63.9,269.1,64.6,268.3,64.6
	C268.2,64.6,268.2,64.6,268.3,64.6L268.3,64.6z M304.4,51.3h-3.6c-0.8,0-1.5-0.7-1.5-1.5v-3.5c0-0.8,0.7-1.5,1.5-1.5h3.5
	c0.8,0,1.5,0.7,1.5,1.5v3.5C305.9,50.6,305.2,51.3,304.4,51.3L304.4,51.3L304.4,51.3z M292.2,51.3h-3.5c-0.8,0-1.5-0.7-1.5-1.5v-3.5
	c0-0.8,0.7-1.5,1.5-1.5h3.5c0.8,0,1.5,0.7,1.5,1.5v3.5C293.7,50.6,293,51.3,292.2,51.3L292.2,51.3L292.2,51.3z M280,51.3h-3.5
	c-0.8,0-1.5-0.7-1.5-1.5v-3.5c0-0.8,0.7-1.5,1.5-1.5h3.5c0.8,0,1.5,0.7,1.5,1.5v3.5C281.5,50.6,280.8,51.3,280,51.3L280,51.3z
	 M292.7,78.9H289c-0.8,0-1.5-0.7-1.5-1.5v-3.5c0-0.8,0.7-1.5,1.5-1.5l0,0h3.5c0.8,0,1.5,0.7,1.5,1.5l0,0v3.5
	C294.1,78.2,293.4,78.8,292.7,78.9C292.6,78.9,292.6,78.9,292.7,78.9L292.7,78.9z M280.5,78.9H277c-0.8,0-1.5-0.7-1.5-1.5v-3.5
	c0-0.8,0.7-1.5,1.5-1.5l0,0h3.5c0.8,0,1.5,0.7,1.5,1.5v3.5C282,78.2,281.3,78.9,280.5,78.9C280.4,78.9,280.4,78.9,280.5,78.9
	L280.5,78.9z"/>
<g>
	<g>
		<path class="st1" d="M174.6,168.3v62.8c0,4.6-3.7,8.3-8.3,8.3l0,0h-148c-4.6,0-8.3-3.7-8.3-8.3l0,0v-62.8c0-4.6,3.7-8.3,8.3-8.3
			l0,0h148C170.9,160,174.6,163.7,174.6,168.3z"/>
		<path class="st1" d="M174.6,168.3c0,1.1-0.9,2.1-2.1,2.1l0,0H12.1c-1.1,0-2.1-0.9-2.1-2.1c0-4.6,3.7-8.3,8.3-8.3h148
			C170.9,160,174.6,163.7,174.6,168.3z"/>
		<path class="st2" d="M20.7,165.4c0,0.9-0.8,1.7-1.7,1.7c-0.9,0-1.7-0.8-1.7-1.7s0.8-1.7,1.7-1.7l0,0
			C20,163.7,20.7,164.4,20.7,165.4z M27.2,165.4c0,0.9-0.8,1.7-1.7,1.7s-1.7-0.8-1.7-1.7s0.8-1.7,1.7-1.7
			C26.4,163.7,27.2,164.4,27.2,165.4L27.2,165.4z M33.7,165.4c0,0.9-0.8,1.7-1.7,1.7c-0.9,0-1.7-0.8-1.7-1.7s0.8-1.7,1.7-1.7
			S33.7,164.4,33.7,165.4z"/>
	</g>
	<path class="st3" d="M43.4,231.4H22.1c-1.6,0-2.9-1.3-2.9-2.9v-21.3c0-1.6,1.3-2.9,2.9-2.9h21.3c1.6,0,2.9,1.3,2.9,2.9v21.3
		C46.3,230,45,231.4,43.4,231.4z"/>
	<path class="st4" d="M28.1,220.8l-3.1-3.1l3.1-3.1 M37.4,214.6l3.1,3.1l-3.1,3.1 M33.9,213.1l-2.5,9.3"/>
</g>
<g>
	<g>
		<path class="st5" d="M351,32v98c0,7.2-7.8,13-17.4,13l0,0H23.4C13.8,143,6,137.2,6,130.1l0,0V32c0-7.2,7.8-13,17.4-13l0,0h310.2
			C343.2,19,351,24.8,351,32z"/>
		<path class="st5" d="M351,32c0,1.8-1.9,3.3-4.4,3.3l0,0H10.4C8,35.3,6,33.9,6,32c0-7.2,7.8-13,17.4-13h310.2
			C343.2,19,351,24.8,351,32z"/>
		<path class="st6" d="M22.7,27.4c0,1.4-1.2,2.6-2.6,2.6s-2.6-1.2-2.6-2.6s1.2-2.6,2.6-2.6l0,0C21.6,24.8,22.7,25.9,22.7,27.4z
			 M32.8,27.4c0,1.4-1.2,2.6-2.6,2.6s-2.6-1.2-2.6-2.6s1.2-2.6,2.6-2.6C31.6,24.8,32.8,25.9,32.8,27.4L32.8,27.4z M43,27.4
			c0,1.4-1.2,2.6-2.6,2.6c-1.4,0-2.6-1.2-2.6-2.6s1.2-2.6,2.6-2.6S43,25.9,43,27.4z"/>
	</g>
	<path class="st3" d="M92.3,130.5H29c-4.8,0-8.7-3.9-8.7-8.9V56.9c0-4.9,3.8-8.9,8.7-8.9h63.4c4.8,0,8.7,3.9,8.7,8.9v64.7
		C101.1,126.4,97.2,130.5,92.3,130.5z"/>
	<path class="st7" d="M47,98.4l-9.1-9.3l9.1-9.3 M74.4,79.6l9.1,9.3l-9.1,9.3 M64.2,74.9L56.7,103"/>
</g>
<g>
	<g>
		<path class="st1" d="M347.6,173.3v62.8c0,4.6-3.7,8.3-8.3,8.3l0,0h-148c-4.6,0-8.3-3.7-8.3-8.3l0,0v-62.8c0-4.6,3.7-8.3,8.3-8.3
			l0,0h148C343.9,165,347.6,168.7,347.6,173.3z"/>
		<path class="st1" d="M347.6,173.3c0,1.1-0.9,2.1-2.1,2.1l0,0H185.1c-1.1,0-2.1-0.9-2.1-2.1c0-4.6,3.7-8.3,8.3-8.3h148
			C343.9,165,347.6,168.7,347.6,173.3z"/>
		<path class="st2" d="M193.7,170.4c0,0.9-0.8,1.7-1.7,1.7s-1.7-0.8-1.7-1.7s0.8-1.7,1.7-1.7l0,0C193,168.7,193.7,169.4,193.7,170.4
			z M200.2,170.4c0,0.9-0.8,1.7-1.7,1.7s-1.7-0.8-1.7-1.7s0.8-1.7,1.7-1.7S200.2,169.4,200.2,170.4L200.2,170.4z M206.7,170.4
			c0,0.9-0.8,1.7-1.7,1.7s-1.7-0.8-1.7-1.7s0.8-1.7,1.7-1.7S206.7,169.4,206.7,170.4z"/>
	</g>
</g>
<g>
	<g id="Layer_2_1_">
		<g id="f65dcaaa-a43f-44d9-8793-dc16a3dce27d">
			<path class="st3" d="M226.5,239.3H111.6l-57.4,99.6l57.4,99.5h114.9l57.5-99.5L226.5,239.3z M214.2,421.7h-95.6l-47.7-82.8
				l47.8-82.9h95.6l47.7,82.9L214.2,421.7z"/>
			<rect x="132.1" y="255.9" class="st8" width="1.3" height="51.4"/>
			<circle class="st3" cx="132.7" cy="310.2" r="3.5"/>
			<rect x="158.7" y="255.9" class="st8" width="1.3" height="51.4"/>
			<circle class="st8" cx="159.4" cy="310.2" r="3.5"/>
			<rect x="205.3" y="255.9" class="st8" width="1.3" height="51.4"/>
			<circle class="st8" cx="206" cy="310.2" r="3.5"/>
			<circle class="st8" cx="186.5" cy="361" r="3.5"/>
			<circle class="st8" cx="114.5" cy="328.6" r="3.5"/>
			<polygon class="st8" points="187.2,358 185.9,358 185.9,296.1 159.4,296.1 159.4,294.9 187.2,294.9 			"/>
			<circle class="st3" cx="141" cy="383.5" r="3.5"/>
			<polygon class="st8" points="141.7,380.5 140.4,380.5 140.4,318.6 113.9,318.6 113.9,317.4 141.7,317.4 			"/>
			<circle class="st3" cx="223.1" cy="355.7" r="3.5"/>
			<polygon class="st8" points="223.7,352.8 222.4,352.8 222.4,290.9 205.4,290.9 205.4,289.6 223.7,289.6 			"/>
			<polygon class="st8" points="115,325 113.8,325 113.8,294.2 132.7,294.2 132.7,295.4 115,295.4 			"/>
			<circle class="st8" cx="159.7" cy="397.4" r="3.5"/>
			<polygon class="st8" points="160.2,393.8 159,393.8 159,364.2 141.3,364.2 141.3,363 160.2,363 			"/>
			<circle class="st8" cx="204.8" cy="371" r="3.5"/>
			<polygon class="st8" points="205.4,367.5 204.2,367.5 204.2,336.7 223.1,336.7 223.1,338 205.4,338 			"/>
		</g>
	</g>
	<g>
		<path class="st3" d="M223.6,237.9H112.9c-3.1,0-5.7-2.5-5.8-5.6l-3.3-76.2c-0.1-3.2,2.3-6,5.6-6.1c0.1,0,0.2,0,0.3,0h117.1
			c3.2,0,5.9,2.6,5.9,5.9c0,0.1,0,0.2,0,0.2l-3.1,76.2C229.3,235.3,226.8,237.9,223.6,237.9z"/>
		<path class="st9" d="M179.4,195.3c0,6.2-5.1,11.3-11.3,11.3s-11.3-5.1-11.3-11.3s5.1-11.3,11.3-11.3S179.4,189.1,179.4,195.3
			L179.4,195.3z"/>
	</g>
</g>
</svg>
