<?xml version="1.0" encoding="utf-8"?>
<!-- Generator: Adobe Illustrator 24.1.1, SVG Export Plug-In . SVG Version: 6.00 Build 0)  -->
<svg version="1.1" id="Layer_1" xmlns="http://www.w3.org/2000/svg" xmlns:xlink="http://www.w3.org/1999/xlink" x="0px" y="0px"
	 viewBox="0 0 281.6 231.4" style="enable-background:new 0 0 281.6 231.4;" xml:space="preserve">
<style type="text/css">
	.st0{fill:none;}
	.st1{fill:none;stroke:#E1E4E5;stroke-width:0.8642;}
	.st2{fill:url(#SVGID_1_);}
	.st3{fill:url(#SVGID_2_);}
	.st4{fill:#E1E4E5;stroke:#E1E4E5;stroke-width:0.5886;}
	.st5{fill:url(#SVGID_3_);}
	.st6{fill:url(#SVGID_4_);}
	.st7{fill:url(#SVGID_5_);}
	.st8{fill:url(#SVGID_6_);}
	.st9{fill:url(#SVGID_7_);}
	.st10{fill:url(#SVGID_8_);}
	.st11{fill:url(#SVGID_9_);}
	.st12{fill:url(#SVGID_10_);}
	.st13{fill:url(#SVGID_11_);}
	.st14{fill:url(#SVGID_12_);}
	.st15{fill:url(#SVGID_13_);}
	.st16{fill:url(#SVGID_14_);}
	.st17{fill:url(#SVGID_15_);}
	.st18{fill:url(#SVGID_16_);}
	.st19{fill:url(#SVGID_17_);}
	.st20{fill:none;stroke:#FFFFFF;stroke-width:3.4978;stroke-linecap:round;stroke-linejoin:round;}
	.st21{fill:url(#SVGID_18_);}
	.st22{fill:url(#SVGID_19_);}
	.st23{fill:url(#SVGID_20_);}
	.st24{fill:url(#SVGID_21_);}
	.st25{fill:url(#SVGID_22_);}
	.st26{fill:url(#SVGID_23_);}
	.st27{fill:url(#SVGID_24_);}
	.st28{fill:#EB996E;}
	.st29{fill:#002841;}
	.st30{fill:#FFFFFF;}
	.st31{fill-rule:evenodd;clip-rule:evenodd;fill:#E1E4E5;}
	.st32{fill:#E1E4E5;}
</style>
<g id="Layer_1-2">
	<path className="st0" d="M-33.1,11h335.3v223.5H-33.1V11z"/>
	<path className="st1" d="M160.4,61.5h90.7c4.5,0,8.2,3.7,8.2,8.2v24.1c0,4.5-3.7,8.2-8.2,8.2h-90.7c-4.5,0-8.2-3.7-8.2-8.2v-24
		C152.2,65.2,155.9,61.5,160.4,61.5z"/>
	
		<linearGradient id="SVGID_1_" gradientUnits="userSpaceOnUse" x1="215.8014" y1="-269.4159" x2="215.7903" y2="-256.5386" gradientTransform="matrix(1 0 0 -1 0 -188)">
		<stop  offset="0" style="stop-color:#FFFFFF"/>
		<stop  offset="1" style="stop-color:#EEEEEE"/>
	</linearGradient>
	<path className="st2" d="M185.3,73.8h61c1.3,0,2.4,1.1,2.4,2.4l0,0c0,1.3-1.1,2.4-2.4,2.4h-61c-1.3,0-2.4-1.1-2.4-2.4l0,0
		C182.8,74.9,183.9,73.8,185.3,73.8z"/>
	
		<linearGradient id="SVGID_2_" gradientUnits="userSpaceOnUse" x1="204.1075" y1="-280.2595" x2="204.0889" y2="-267.3822" gradientTransform="matrix(1 0 0 -1 0 -188)">
		<stop  offset="0" style="stop-color:#FFFFFF"/>
		<stop  offset="1" style="stop-color:#EEEEEE"/>
	</linearGradient>
	<path className="st3" d="M185.3,84.7H223c1.3,0,2.4,1.1,2.4,2.4l0,0c0,1.3-1.1,2.4-2.4,2.4h-37.8c-1.3,0-2.4-1.1-2.4-2.4l0,0
		C182.8,85.8,183.9,84.7,185.3,84.7z"/>
	<path className="st1" d="M138,131.8v48.9c0,3.6-2.9,6.5-6.5,6.5l0,0H16.3c-3.6,0-6.5-2.9-6.5-6.5l0,0v-48.9c0-3.6,2.9-6.5,6.5-6.5
		h115.3C135.2,125.4,138,128.3,138,131.8z"/>
	<path className="st1" d="M138,131.8c0,0.9-0.7,1.6-1.6,1.6h-125c-0.9,0-1.6-0.7-1.6-1.6c0-3.6,2.9-6.5,6.5-6.5h115.3
		C135.2,125.4,138,128.3,138,131.8z"/>
	<path className="st4" d="M18.1,129.6c0,0.7-0.6,1.3-1.3,1.3c-0.7,0-1.3-0.6-1.3-1.3s0.6-1.3,1.3-1.3C17.5,128.3,18.1,128.8,18.1,129.6
		L18.1,129.6z M23.2,129.6c0,0.7-0.6,1.3-1.3,1.3c-0.7,0-1.3-0.6-1.3-1.3s0.6-1.3,1.3-1.3S23.2,128.9,23.2,129.6z M28.2,129.6
		c0,0.7-0.6,1.3-1.3,1.3s-1.3-0.6-1.3-1.3s0.6-1.3,1.3-1.3S28.2,128.9,28.2,129.6L28.2,129.6z"/>
	
		<linearGradient id="SVGID_3_" gradientUnits="userSpaceOnUse" x1="77.7563" y1="-346.6163" x2="77.6148" y2="-315.1326" gradientTransform="matrix(1 0 0 -1 0 -188)">
		<stop  offset="0" style="stop-color:#FFFFFF"/>
		<stop  offset="1" style="stop-color:#EEEEEE"/>
	</linearGradient>
	<path className="st5" d="M68.3,140.1h18.8c3.3,0,6,2.7,6,6l0,0c0,3.3-2.7,6-6,6H68.3c-3.3,0-6-2.7-6-6l0,0
		C62.3,142.7,65,140.1,68.3,140.1z"/>
	
		<linearGradient id="SVGID_4_" gradientUnits="userSpaceOnUse" x1="77.7563" y1="-376.0103" x2="77.6147" y2="-344.5266" gradientTransform="matrix(1 0 0 -1 0 -188)">
		<stop  offset="0" style="stop-color:#FFFFFF"/>
		<stop  offset="1" style="stop-color:#EEEEEE"/>
	</linearGradient>
	<path className="st6" d="M68.3,169.5h18.8c3.3,0,6,2.7,6,6l0,0c0,3.3-2.7,5.9-6,5.9H68.3c-3.3,0-5.9-2.7-6-5.9l0,0
		C62.3,172.1,65,169.5,68.3,169.5z"/>
	
		<linearGradient id="SVGID_5_" gradientUnits="userSpaceOnUse" x1="71.7439" y1="-361.3151" x2="71.5092" y2="-329.8275" gradientTransform="matrix(1 0 0 -1 0 -188)">
		<stop  offset="0" style="stop-color:#FFFFFF"/>
		<stop  offset="1" style="stop-color:#EEEEEE"/>
	</linearGradient>
	<path className="st7" d="M68.3,154.8H75c3.3,0,5.9,2.7,6,5.9l0,0c0,3.3-2.7,6-6,6h-6.7c-3.3,0-6-2.7-6-6l0,0
		C62.3,157.4,65,154.8,68.3,154.8z"/>
	
		<linearGradient id="SVGID_6_" gradientUnits="userSpaceOnUse" x1="96.544" y1="-361.3155" x2="96.3093" y2="-329.8279" gradientTransform="matrix(1 0 0 -1 0 -188)">
		<stop  offset="0" style="stop-color:#FFFFFF"/>
		<stop  offset="1" style="stop-color:#EEEEEE"/>
	</linearGradient>
	<path className="st8" d="M93.1,154.8h6.7c3.3,0,5.9,2.7,5.9,5.9l0,0c0,3.3-2.7,5.9-5.9,6h-6.7c-3.3,0-5.9-2.7-5.9-6l0,0
		C87.2,157.4,89.8,154.8,93.1,154.8z"/>
	
		<linearGradient id="SVGID_7_" gradientUnits="userSpaceOnUse" x1="121.4439" y1="-361.3152" x2="121.2093" y2="-329.8276" gradientTransform="matrix(1 0 0 -1 0 -188)">
		<stop  offset="0" style="stop-color:#FFFFFF"/>
		<stop  offset="1" style="stop-color:#EEEEEE"/>
	</linearGradient>
	<path className="st9" d="M118,154.8h6.7c3.3,0,5.9,2.7,6,5.9l0,0c0,3.3-2.7,6-6,6H118c-3.3,0-6-2.7-6-6l0,0
		C112,157.4,114.7,154.8,118,154.8z"/>
	
		<linearGradient id="SVGID_8_" gradientUnits="userSpaceOnUse" x1="115.3563" y1="-346.6164" x2="115.2147" y2="-315.1327" gradientTransform="matrix(1 0 0 -1 0 -188)">
		<stop  offset="0" style="stop-color:#FFFFFF"/>
		<stop  offset="1" style="stop-color:#EEEEEE"/>
	</linearGradient>
	<path className="st10" d="M105.9,140.1h18.8c3.3,0,6,2.7,6,6l0,0c0,3.3-2.7,6-6,6h-18.8c-3.3,0-6-2.7-6-6l0,0
		C99.9,142.7,102.6,140.1,105.9,140.1z"/>
	
		<linearGradient id="SVGID_9_" gradientUnits="userSpaceOnUse" x1="115.3563" y1="-376.0103" x2="115.2148" y2="-344.5267" gradientTransform="matrix(1 0 0 -1 0 -188)">
		<stop  offset="0" style="stop-color:#FFFFFF"/>
		<stop  offset="1" style="stop-color:#EEEEEE"/>
	</linearGradient>
	<path className="st11" d="M105.9,169.5h18.8c3.3,0,6,2.7,6,6l0,0c0,3.3-2.7,5.9-6,5.9h-18.8c-3.3,0-5.9-2.7-6-5.9l0,0
		C99.9,172.1,102.6,169.5,105.9,169.5z"/>
	<path className="st1" d="M259.1,114.2v48.9c0,3.6-2.9,6.5-6.5,6.5l0,0H137.4c-3.6,0-6.5-2.9-6.5-6.5l0,0v-48.9c0-3.6,2.9-6.5,6.5-6.5
		h115.3C256.3,107.7,259.1,110.6,259.1,114.2L259.1,114.2z"/>
	
		<linearGradient id="SVGID_10_" gradientUnits="userSpaceOnUse" x1="158.7359" y1="-377.2807" x2="157.3986" y2="-262.532" gradientTransform="matrix(1 0 0 -1 0 -188)">
		<stop  offset="0" style="stop-color:#FFFFFF"/>
		<stop  offset="1" style="stop-color:#EEEEEE"/>
	</linearGradient>
	<path className="st12" d="M175.2,165h-34c-2.6,0-4.7-2.1-4.7-4.7v-34c0-2.6,2.1-4.7,4.7-4.7h34c2.6,0,4.7,2.1,4.7,4.7v34
		C179.8,162.9,177.7,165,175.2,165z"/>
	<path className="st1" d="M259.1,114.2c0,0.9-0.7,1.6-1.6,1.6h-125c-0.9,0-1.6-0.7-1.6-1.6l0,0c0-3.6,2.9-6.5,6.5-6.5h115.3
		C256.3,107.7,259.1,110.6,259.1,114.2L259.1,114.2z"/>
	<path className="st4" d="M139.2,111.9c0,0.7-0.6,1.3-1.3,1.3s-1.3-0.6-1.3-1.3c0-0.7,0.6-1.3,1.3-1.3l0,0
		C138.6,110.6,139.2,111.2,139.2,111.9z M144.3,111.9c0,0.7-0.6,1.3-1.3,1.3s-1.3-0.6-1.3-1.3s0.6-1.3,1.3-1.3
		S144.3,111.2,144.3,111.9z M149.3,111.9c0,0.7-0.6,1.3-1.3,1.3s-1.3-0.6-1.3-1.3c0-0.7,0.6-1.3,1.3-1.3S149.3,111.2,149.3,111.9z"
		/>
	
		<linearGradient id="SVGID_11_" gradientUnits="userSpaceOnUse" x1="198.7569" y1="-328.9677" x2="198.6153" y2="-297.4803" gradientTransform="matrix(1 0 0 -1 0 -188)">
		<stop  offset="0" style="stop-color:#FFFFFF"/>
		<stop  offset="1" style="stop-color:#EEEEEE"/>
	</linearGradient>
	<path className="st13" d="M189.3,122.4h18.8c3.3,0,5.9,2.7,6,5.9l0,0c0,3.3-2.7,6-6,6h-18.8c-3.3,0-6-2.7-6-6l0,0
		C183.4,125.1,186.1,122.4,189.3,122.4z"/>
	
		<linearGradient id="SVGID_12_" gradientUnits="userSpaceOnUse" x1="198.7569" y1="-358.3617" x2="198.6153" y2="-326.8742" gradientTransform="matrix(1 0 0 -1 0 -188)">
		<stop  offset="0" style="stop-color:#FFFFFF"/>
		<stop  offset="1" style="stop-color:#EEEEEE"/>
	</linearGradient>
	<path className="st14" d="M189.3,151.8h18.8c3.3,0,5.9,2.7,6,5.9l0,0c0,3.3-2.7,6-6,6h-18.8c-3.3,0-6-2.7-6-6l0,0
		C183.4,154.5,186.1,151.8,189.3,151.8z"/>
	
		<linearGradient id="SVGID_13_" gradientUnits="userSpaceOnUse" x1="192.7437" y1="-343.663" x2="192.509" y2="-312.1793" gradientTransform="matrix(1 0 0 -1 0 -188)">
		<stop  offset="0" style="stop-color:#FFFFFF"/>
		<stop  offset="1" style="stop-color:#EEEEEE"/>
	</linearGradient>
	<path className="st15" d="M189.3,137.1h6.7c3.3,0,6,2.7,6,6l0,0c0,3.3-2.7,5.9-6,5.9h-6.7c-3.3,0-5.9-2.7-6-5.9l0,0
		C183.4,139.8,186.1,137.1,189.3,137.1z"/>
	
		<linearGradient id="SVGID_14_" gradientUnits="userSpaceOnUse" x1="217.6437" y1="-343.6626" x2="217.409" y2="-312.1789" gradientTransform="matrix(1 0 0 -1 0 -188)">
		<stop  offset="0" style="stop-color:#FFFFFF"/>
		<stop  offset="1" style="stop-color:#EEEEEE"/>
	</linearGradient>
	<path className="st16" d="M214.2,137.1h6.7c3.3,0,6,2.7,6,6l0,0c0,3.3-2.7,5.9-6,5.9h-6.7c-3.3,0-5.9-2.7-6-5.9l0,0
		C208.2,139.8,210.9,137.1,214.2,137.1z"/>
	
		<linearGradient id="SVGID_15_" gradientUnits="userSpaceOnUse" x1="242.593" y1="-343.6619" x2="242.3583" y2="-312.1782" gradientTransform="matrix(1 0 0 -1 0 -188)">
		<stop  offset="0" style="stop-color:#FFFFFF"/>
		<stop  offset="1" style="stop-color:#EEEEEE"/>
	</linearGradient>
	<path className="st17" d="M239.1,137.1h6.7c3.3,0,6,2.7,6,6l0,0c0,3.3-2.7,5.9-6,5.9h-6.7c-3.3,0-5.9-2.7-5.9-5.9l0,0
		C233.1,139.8,235.8,137.1,239.1,137.1z"/>
	
		<linearGradient id="SVGID_16_" gradientUnits="userSpaceOnUse" x1="236.5059" y1="-328.9672" x2="236.3644" y2="-297.4796" gradientTransform="matrix(1 0 0 -1 0 -188)">
		<stop  offset="0" style="stop-color:#FFFFFF"/>
		<stop  offset="1" style="stop-color:#EEEEEE"/>
	</linearGradient>
	<path className="st18" d="M227,122.4h18.8c3.3,0,5.9,2.7,6,5.9l0,0c0,3.3-2.7,6-6,6H227c-3.3,0-5.9-2.7-5.9-6l0,0
		C221,125.1,223.7,122.4,227,122.4z"/>
	
		<linearGradient id="SVGID_17_" gradientUnits="userSpaceOnUse" x1="236.5059" y1="-358.3611" x2="236.3644" y2="-326.8737" gradientTransform="matrix(1 0 0 -1 0 -188)">
		<stop  offset="0" style="stop-color:#FFFFFF"/>
		<stop  offset="1" style="stop-color:#EEEEEE"/>
	</linearGradient>
	<path className="st19" d="M227,151.8h18.8c3.3,0,5.9,2.7,6,5.9l0,0c0,3.3-2.7,6-6,6H227c-3.3,0-5.9-2.7-5.9-6l0,0
		C221,154.5,223.7,151.8,227,151.8z"/>
	<path className="st20" d="M150.8,148.1l-4.9-4.9l4.9-4.9 M165.5,138.3l4.9,4.9l-4.9,4.9 M160.1,135.9l-4.1,14.7"/>
	<path className="st1" d="M146.7,60.4v48.9c0,3.6-2.9,6.5-6.5,6.5l0,0H24.9c-3.6,0-6.5-2.9-6.5-6.5l0,0V60.4c0-3.6,2.9-6.5,6.5-6.5l0,0
		h115.3C143.8,53.9,146.7,56.8,146.7,60.4z"/>
	<path className="st1" d="M146.7,60.4c0,0.9-0.7,1.6-1.6,1.6l0,0H20c-0.9,0-1.6-0.7-1.6-1.6c0-3.6,2.9-6.5,6.5-6.5h115.3
		C143.8,53.9,146.7,56.8,146.7,60.4z"/>
	<path className="st4" d="M26.7,58.1c0,0.7-0.6,1.3-1.3,1.3c-0.7,0-1.3-0.6-1.3-1.3s0.6-1.3,1.3-1.3l0,0C26.2,56.8,26.7,57.4,26.7,58.1z
		 M31.8,58.1c0,0.7-0.6,1.3-1.3,1.3c-0.7,0-1.3-0.6-1.3-1.3s0.6-1.3,1.3-1.3C31.2,56.8,31.8,57.4,31.8,58.1L31.8,58.1z M36.9,58.1
		c0,0.7-0.6,1.3-1.3,1.3s-1.3-0.6-1.3-1.3s0.6-1.3,1.3-1.3C36.3,56.8,36.8,57.4,36.9,58.1z"/>
	
		<linearGradient id="SVGID_18_" gradientUnits="userSpaceOnUse" x1="86.3561" y1="-275.1933" x2="86.2146" y2="-243.7059" gradientTransform="matrix(1 0 0 -1 0 -188)">
		<stop  offset="0" style="stop-color:#FFFFFF"/>
		<stop  offset="1" style="stop-color:#EEEEEE"/>
	</linearGradient>
	<path className="st21" d="M76.9,68.6h18.8c3.3,0,5.9,2.7,5.9,5.9l0,0c0,3.3-2.7,5.9-5.9,5.9H76.9c-3.3,0-5.9-2.7-5.9-5.9l0,0
		C70.9,71.3,73.6,68.6,76.9,68.6z"/>
	
		<linearGradient id="SVGID_19_" gradientUnits="userSpaceOnUse" x1="86.307" y1="-304.5875" x2="86.1655" y2="-273.1001" gradientTransform="matrix(1 0 0 -1 0 -188)">
		<stop  offset="0" style="stop-color:#FFFFFF"/>
		<stop  offset="1" style="stop-color:#EEEEEE"/>
	</linearGradient>
	<path className="st22" d="M76.9,98h18.8c3.3,0,5.9,2.7,5.9,5.9l0,0c0,3.3-2.7,5.9-5.9,6H76.9c-3.3,0-6-2.7-6-6l0,0
		C70.9,100.7,73.6,98,76.9,98z"/>
	
		<linearGradient id="SVGID_20_" gradientUnits="userSpaceOnUse" x1="80.3424" y1="-289.8883" x2="80.1114" y2="-258.4046" gradientTransform="matrix(1 0 0 -1 0 -188)">
		<stop  offset="0" style="stop-color:#FFFFFF"/>
		<stop  offset="1" style="stop-color:#EEEEEE"/>
	</linearGradient>
	<path className="st23" d="M76.9,83.3h6.7c3.3,0,5.9,2.7,5.9,5.9l0,0c0,3.3-2.7,5.9-5.9,5.9h-6.7c-3.3,0-5.9-2.7-5.9-5.9l0,0
		C70.9,86,73.6,83.3,76.9,83.3z"/>
	
		<linearGradient id="SVGID_21_" gradientUnits="userSpaceOnUse" x1="105.1446" y1="-289.8887" x2="104.9099" y2="-258.405" gradientTransform="matrix(1 0 0 -1 0 -188)">
		<stop  offset="0" style="stop-color:#FFFFFF"/>
		<stop  offset="1" style="stop-color:#EEEEEE"/>
	</linearGradient>
	<path className="st24" d="M101.7,83.3h6.7c3.3,0,5.9,2.7,5.9,5.9l0,0c0,3.3-2.7,5.9-5.9,5.9h-6.7c-3.3,0-5.9-2.7-5.9-5.9l0,0
		C95.8,86,98.4,83.3,101.7,83.3z"/>
	
		<linearGradient id="SVGID_22_" gradientUnits="userSpaceOnUse" x1="130.0439" y1="-289.8884" x2="129.8092" y2="-258.4047" gradientTransform="matrix(1 0 0 -1 0 -188)">
		<stop  offset="0" style="stop-color:#FFFFFF"/>
		<stop  offset="1" style="stop-color:#EEEEEE"/>
	</linearGradient>
	<path className="st25" d="M126.6,83.3h6.7c3.3,0,5.9,2.7,5.9,5.9l0,0c0,3.3-2.7,5.9-5.9,5.9h-6.7c-3.3,0-5.9-2.7-5.9-5.9l0,0
		C120.6,86,123.3,83.3,126.6,83.3z"/>
	
		<linearGradient id="SVGID_23_" gradientUnits="userSpaceOnUse" x1="123.9561" y1="-275.1933" x2="123.8146" y2="-243.7059" gradientTransform="matrix(1 0 0 -1 0 -188)">
		<stop  offset="0" style="stop-color:#FFFFFF"/>
		<stop  offset="1" style="stop-color:#EEEEEE"/>
	</linearGradient>
	<path className="st26" d="M114.5,68.6h18.8c3.3,0,5.9,2.7,5.9,5.9l0,0c0,3.3-2.7,5.9-5.9,5.9h-18.8c-3.3,0-5.9-2.7-5.9-5.9l0,0
		C108.5,71.3,111.2,68.6,114.5,68.6z"/>
	
		<linearGradient id="SVGID_24_" gradientUnits="userSpaceOnUse" x1="123.957" y1="-304.5873" x2="123.8154" y2="-273.0998" gradientTransform="matrix(1 0 0 -1 0 -188)">
		<stop  offset="0" style="stop-color:#FFFFFF"/>
		<stop  offset="1" style="stop-color:#EEEEEE"/>
	</linearGradient>
	<path className="st27" d="M114.5,98h18.8c3.3,0,5.9,2.7,6,5.9l0,0c0,3.3-2.7,6-6,6l0,0h-18.8c-3.3,0-6-2.7-6-6l0,0
		C108.5,100.7,111.2,98,114.5,98z"/>
	<path className="st28" d="M125.2,191.1c0.7-0.1,1.4-0.2,2.1-0.3c3.4-0.2,6.7,1.2,8.9,3.8c0.4,0.5,0.8,1.1,1.2,1.7
		c-0.1-0.2-0.1-0.4-0.2-0.5c-0.3-0.4-0.5-0.9-0.9-1.3c-2.2-2.7-5.5-4.2-9-3.8c-0.5,0-1,0.1-1.5,0.3
		C125.6,190.9,125.4,191,125.2,191.1z M126.4,188.4c0.7-0.2,1.4-0.3,2.1-0.4c1.8,0,3.5,0.5,5,1.4c1.5,1,2.8,2.1,4,3.4
		c0.4,0.5,0.8,0.9,1.1,1.2c0.1,0.2,0.3,0.3,0.4,0.4c-0.1-0.2-0.2-0.3-0.4-0.5c-0.3-0.4-0.7-0.8-1.1-1.2c-1.2-1.3-2.5-2.5-4-3.5
		s-3.3-1.4-5.1-1.4c-0.5,0-1.1,0.1-1.6,0.3c-0.1,0-0.3,0.1-0.4,0.2C126.4,188.4,126.4,188.4,126.4,188.4L126.4,188.4z"/>
	<path className="st28" d="M156.8,191.4c-0.7-0.1-1.4-0.2-2.1-0.3c-3.4-0.2-6.7,1.2-8.9,3.8c-0.8,1-1.2,1.7-1.2,1.7
		c0.1-0.2,0.1-0.3,0.2-0.5c2-3.5,5.9-5.5,9.9-5.1c0.5,0,1,0.1,1.5,0.3C156.4,191.3,156.6,191.3,156.8,191.4z M155.6,188.8
		c-0.7-0.2-1.4-0.3-2.1-0.4c-1.8,0-3.5,0.5-5,1.4c-1.5,1-2.8,2.1-4,3.4l-1.1,1.2c-0.1,0.2-0.3,0.3-0.4,0.4c0.1-0.2,0.2-0.3,0.4-0.5
		c0.2-0.3,0.6-0.7,1.1-1.2c1.2-1.3,2.5-2.5,4-3.5s3.3-1.4,5.1-1.4c0.5,0,1.1,0.1,1.6,0.3c0.1,0,0.3,0.1,0.4,0.2
		C155.5,188.7,155.6,188.7,155.6,188.8L155.6,188.8z"/>
	<path className="st29" d="M164.7,203h-51.1c-1.5,0-2.7-1.2-2.7-2.6l-1.5-35.2c-0.1-1.5,1.1-2.8,2.6-2.8h0.1h54c1.5,0,2.7,1.2,2.7,2.7
		v0.1l-1.4,35.2C167.4,201.8,166.2,203,164.7,203z"/>
	<path className="st30" d="M144.3,183.3c0,2.9-2.3,5.2-5.2,5.2s-5.2-2.3-5.2-5.2s2.3-5.2,5.2-5.2C141.9,178.1,144.3,180.5,144.3,183.3
		L144.3,183.3z"/>
	<path className="st31" d="M178.8,48.2h-1.3c-0.3,0-0.6-0.3-0.6-0.6l0,0v-1.3c0-0.3,0.3-0.6,0.6-0.6l0,0h1.3c0.3,0,0.6,0.3,0.6,0.6v1.3
		C179.4,47.9,179.2,48.2,178.8,48.2L178.8,48.2z M174.3,48.2H173c-0.3,0-0.6-0.3-0.6-0.6v-1.3c0-0.3,0.3-0.6,0.6-0.6l0,0h1.3
		c0.3,0,0.6,0.3,0.6,0.6v1.3C174.9,47.9,174.6,48.2,174.3,48.2L174.3,48.2L174.3,48.2z M169.8,48.2h-1.3c-0.3,0-0.6-0.3-0.6-0.6
		v-1.3c0-0.3,0.3-0.6,0.6-0.6l0,0h1.3c0.3,0,0.6,0.3,0.6,0.6l0,0v1.3C170.3,47.9,170,48.2,169.8,48.2
		C169.7,48.2,169.7,48.2,169.8,48.2L169.8,48.2z M165.2,48.2h-1.3c-0.3,0-0.6-0.3-0.6-0.6v-1.3c0-0.3,0.3-0.6,0.6-0.6l0,0h1.3
		c0.3,0,0.6,0.3,0.6,0.6v1.3C165.8,47.9,165.5,48.2,165.2,48.2L165.2,48.2L165.2,48.2z M160.7,48.2h-1.3c-0.3,0-0.6-0.3-0.6-0.6
		v-1.3c0-0.3,0.3-0.6,0.6-0.6l0,0h1.3c0.3,0,0.6,0.3,0.6,0.6v1.3C161.2,47.9,161,48.2,160.7,48.2L160.7,48.2L160.7,48.2z
		 M174.1,43.2h-1.3c-0.3,0-0.6-0.3-0.6-0.6v-1.3c0-0.3,0.3-0.6,0.6-0.6h1.3c0.3,0,0.6,0.3,0.6,0.6v1.3
		C174.7,43,174.4,43.2,174.1,43.2L174.1,43.2L174.1,43.2z M169.6,43.2h-1.3c-0.3,0-0.6-0.3-0.6-0.6v-1.3c0-0.3,0.2-0.6,0.6-0.6h1.3
		c0.3,0,0.6,0.3,0.6,0.6v1.3C170.2,43,169.9,43.2,169.6,43.2L169.6,43.2L169.6,43.2z M165.1,43.2h-1.3c-0.3,0-0.6-0.3-0.6-0.6v-1.3
		c0-0.3,0.3-0.6,0.6-0.6h1.3c0.3,0,0.6,0.3,0.6,0.6v1.3C165.6,43,165.4,43.2,165.1,43.2L165.1,43.2z M169.8,53.5h-1.3
		c-0.3,0-0.6-0.3-0.6-0.6v-1.3c0-0.3,0.3-0.6,0.6-0.6l0,0h1.3c0.3,0,0.6,0.3,0.6,0.6l0,0v1.3C170.3,53.3,170,53.5,169.8,53.5
		C169.7,53.5,169.7,53.5,169.8,53.5L169.8,53.5z M165.2,53.5h-1.3c-0.3,0-0.6-0.3-0.6-0.6v-1.3c0-0.3,0.3-0.6,0.6-0.6l0,0h1.3
		c0.3,0,0.6,0.3,0.6,0.6v1.3C165.8,53.3,165.5,53.5,165.2,53.5L165.2,53.5L165.2,53.5z"/>
	<path className="st32" d="M42.9,201.3h192.6c1,0,1.9,0.8,1.9,1.9l0,0c0,1-0.8,1.9-1.9,1.9H42.9c-1,0-1.9-0.8-1.9-1.9l0,0
		C41,202.2,41.9,201.3,42.9,201.3z"/>
	<path className="st32" d="M216,194.3l9.8-9.8c0.4-0.4,0.9-0.4,1.3,0l0,0c0.4,0.4,0.4,0.9,0,1.3l-9.8,9.8c-0.4,0.4-0.9,0.4-1.3,0l0,0
		C215.6,195.2,215.6,194.7,216,194.3z"/>
	<path className="st32" d="M222,194.3l2.8-2.8c0.4-0.4,0.9-0.4,1.3,0l0,0c0.4,0.4,0.4,0.9,0,1.3l-2.8,2.8c-0.4,0.4-0.9,0.4-1.3,0l0,0
		C221.7,195.3,221.7,194.7,222,194.3z"/>
</g>
<g id="Layer_2_1_">
	<g id="bd9e156c-4ae5-43bd-909a-1d43618968d1">
		<path className="st29" d="M22.1,107.4V70.6c0-0.7,0.6-1.3,1.3-1.3h45.4c0.7,0,1.3,0.6,1.3,1.3v36.8c0,0.7-0.6,1.3-1.3,1.3H23.5
			C22.7,108.8,22.1,108.2,22.1,107.4L22.1,107.4z"/>
		<path className="st30" d="M41,99.7h23.2h0.1l-11-19c-0.2-0.4-0.7-0.5-1-0.3c-0.1,0.1-0.2,0.2-0.3,0.3l-7.4,12.7L44.2,94L41,99.7z"/>
		<path className="st30" d="M28.1,99.7h20.1l-3.9-5.6L44,93.6l-5.1-7.4c-0.3-0.5-1.1-0.5-1.5-0.1l-0.1,0.1L28.1,99.7z"/>
		<circle className="st30" cx="43.2" cy="81.8" r="3.4"/>
	</g>
</g>
<g id="Layer_2_2_">
	<g id="bd9e156c-4ae5-43bd-909a-1d43618968d1_1_">
		<path className="st29" d="M17,175.4v-36.8c0-0.7,0.6-1.3,1.3-1.3h45.4c0.7,0,1.3,0.6,1.3,1.3v36.8c0,0.7-0.6,1.3-1.3,1.3H18.3
			C17.6,176.8,17,176.2,17,175.4L17,175.4z"/>
		<path className="st30" d="M35.9,167.7H59h0.1l-11-19c-0.2-0.4-0.7-0.5-1-0.3c-0.1,0.1-0.2,0.2-0.3,0.3l-7.4,12.7L39,162L35.9,167.7z"
			/>
		<path className="st30" d="M23,167.7h20l-3.9-5.6l-0.3-0.4l-5.1-7.4c-0.3-0.5-1.1-0.5-1.5-0.1l-0.1,0.1L23,167.7z"/>
		<circle className="st30" cx="38.1" cy="149.8" r="3.4"/>
	</g>
</g>
<g id="Layer_2_3_">
	<g id="bd9e156c-4ae5-43bd-909a-1d43618968d1_2_">
		<path className="st29" d="M153.5,143.6V65.4c0-1.6,1.3-2.8,2.8-2.8h96.3c1.6,0,2.8,1.3,2.8,2.8v78.1c0,1.6-1.3,2.8-2.8,2.8h-96.3
			C154.8,146.4,153.5,145.1,153.5,143.6L153.5,143.6z"/>
		<path className="st30" d="M193.5,127.2h49.2c0.1,0,0.1,0,0.2,0l-23.3-40.3c-0.4-0.8-1.4-1.1-2.2-0.6c-0.3,0.1-0.5,0.4-0.6,0.6
			l-15.6,27l-0.7,1.3L193.5,127.2z"/>
		<path className="st30" d="M166.2,127.2h42.5l-8.2-12l-0.6-0.9l-10.7-15.6c-0.7-1-2.4-1.1-3.2-0.2c-0.1,0.1-0.1,0.1-0.2,0.2
			L166.2,127.2z"/>
		<circle className="st30" cx="198.2" cy="89.1" r="7.3"/>
	</g>
</g>
</svg>
