<svg xmlns="http://www.w3.org/2000/svg" viewBox="0 0 281.21 113"><defs><style>.cls-1{fill:#aadfee;}.cls-1,.cls-2{opacity:0.65;}.cls-3{fill:none;stroke:#002941;stroke-miterlimit:10;stroke-width:1.11px;}</style></defs><g id="Layer_2" data-name="Layer 2"><g id="Layer_1-2" data-name="Layer 1"><rect className="cls-1" x="128.11" width="153.1" height="113" rx="15.09"/><g className="cls-2"><polyline className="cls-3" points="4.62 67.71 15.6 83.61 23.8 67.71 38.06 83.35 46.13 66.7 58.75 82.97 68.22 67.08 80.83 83.98 88.03 67.71 101.66 83.61 106.83 67.71 118.82 83.35 123.99 68.08 133.45 83.61 139.89 67.71 150.61 83.98 157.81 68.08 167.52 83.61 174.59 67.45 184.68 83.35 191.5 67.71 200.96 82.97 205.5 67.08 214.59 83.61 221.65 67.45"/><polyline className="cls-3" points="2.35 47.52 13.33 63.42 21.53 47.52 35.79 63.16 43.86 46.51 56.48 62.78 65.94 46.89 78.56 63.79 85.76 47.52 99.38 63.42 104.56 47.52 116.54 63.16 121.72 47.9 131.18 63.42 137.62 47.52 148.34 63.79 155.53 47.9 165.25 63.42 172.32 47.26 182.41 63.16 189.22 47.52 198.69 62.78 203.23 46.89 212.32 63.42 219.38 47.26"/><polyline className="cls-3" points="0.46 28.46 11.43 44.36 19.64 28.46 33.9 44.11 41.97 27.45 54.59 43.73 64.05 27.83 76.67 44.74 83.86 28.46 97.49 44.36 102.66 28.46 114.65 44.11 119.83 28.84 129.29 44.36 135.72 28.46 146.45 44.74 153.64 28.84 163.36 44.36 170.42 28.21 180.52 44.11 187.33 28.46 196.8 43.73 201.34 27.83 210.42 44.36 217.49 28.21"/></g></g></g></svg>