<?xml version="1.0" encoding="utf-8"?>
<!-- Generator: Adobe Illustrator 24.1.1, SVG Export Plug-In . SVG Version: 6.00 Build 0)  -->
<svg version="1.1" id="Layer_1" xmlns="http://www.w3.org/2000/svg" xmlns:xlink="http://www.w3.org/1999/xlink" x="0px" y="0px"
	 viewBox="0 0 900 600" style="enable-background:new 0 0 900 600;" xml:space="preserve">
<style type="text/css">
	.st0{fill:none;}
	.st1{fill:none;stroke:#E1E4E5;stroke-width:2.32;}
	.st2{opacity:0.63;fill:url(#SVGID_1_);}
	.st3{opacity:0.63;fill:url(#SVGID_2_);}
	.st4{fill-rule:evenodd;clip-rule:evenodd;fill:#002841;}
	.st5{fill:none;stroke:#FFFFFF;stroke-width:4.38;stroke-linecap:round;stroke-linejoin:round;}
	.st6{fill:#002841;}
	.st7{fill:#E1E4E5;stroke:#E1E4E5;stroke-width:1.58;}
	.st8{opacity:0.63;fill:url(#SVGID_3_);}
	.st9{opacity:0.63;fill:url(#SVGID_4_);}
	.st10{opacity:0.63;fill:url(#SVGID_5_);}
	.st11{fill:url(#SVGID_6_);}
	.st12{fill:url(#SVGID_7_);}
	.st13{fill:url(#SVGID_8_);}
	.st14{fill:url(#SVGID_9_);}
	.st15{fill:none;stroke:#FFFFFF;stroke-width:9.39;stroke-linecap:round;stroke-linejoin:round;}
	.st16{opacity:0.6;fill:url(#SVGID_10_);}
	.st17{opacity:0.63;fill:url(#SVGID_11_);}
	.st18{opacity:0.63;fill:url(#SVGID_12_);}
	.st19{opacity:0.63;fill:url(#SVGID_13_);}
	.st20{opacity:0.63;fill:url(#SVGID_14_);}
	.st21{opacity:0.63;fill:url(#SVGID_15_);}
	.st22{opacity:0.63;fill:url(#SVGID_16_);}
	.st23{opacity:0.63;fill:url(#SVGID_17_);}
	.st24{opacity:0.63;fill:url(#SVGID_18_);}
	.st25{opacity:0.63;fill:url(#SVGID_19_);}
	.st26{opacity:0.63;fill:url(#SVGID_20_);}
	.st27{opacity:0.63;fill:url(#SVGID_21_);}
	.st28{fill:url(#SVGID_22_);}
	.st29{opacity:0.63;fill:url(#SVGID_23_);}
	.st30{opacity:0.63;fill:url(#SVGID_24_);}
	.st31{fill:#F8AE9D;}
	.st32{fill:#EB996E;}
	.st33{fill:#FFFFFF;}
	.st34{fill-rule:evenodd;clip-rule:evenodd;fill:#E1E4E5;}
	.st35{fill:#E1E4E5;}
</style>
<g id="Layer_2_1_">
	<g id="Layer_1-2">
		<path class="st0" d="M0,0h900v600H0V0z"/>
		<path class="st1" d="M519.6,135.7H763c12.2,0,22,9.9,22,22.1v64.7c0,12.2-9.9,22.1-22,22.1H519.6c-12.2,0-22-9.9-22-22.1v-64.7
			C497.5,145.6,507.4,135.7,519.6,135.7z"/>
		
			<linearGradient id="SVGID_1_" gradientUnits="userSpaceOnUse" x1="668.077" y1="611.08" x2="668.047" y2="576.51" gradientTransform="matrix(1 0 0 1 0 -422)">
			<stop  offset="0" style="stop-color:#FFFFFF"/>
			<stop  offset="1" style="stop-color:#EEEEEE"/>
		</linearGradient>
		<path class="st2" d="M586.2,168.7h163.6c3.6,0,6.5,2.9,6.5,6.5v0c0,3.6-2.9,6.5-6.5,6.5H586.2c-3.6,0-6.5-2.9-6.5-6.5v0
			C579.7,171.6,582.6,168.7,586.2,168.7z"/>
		
			<linearGradient id="SVGID_2_" gradientUnits="userSpaceOnUse" x1="636.965" y1="640.19" x2="636.915" y2="605.62" gradientTransform="matrix(1 0 0 1 0 -422)">
			<stop  offset="0" style="stop-color:#FFFFFF"/>
			<stop  offset="1" style="stop-color:#EEEEEE"/>
		</linearGradient>
		<path class="st3" d="M586.2,197.8h101.4c3.6,0,6.5,2.9,6.5,6.5v0c0,3.6-2.9,6.5-6.5,6.5H586.2c-3.6,0-6.5-2.9-6.5-6.5v0
			C579.7,200.7,582.6,197.8,586.2,197.8z"/>
		<path class="st4" d="M542.3,218.2c-15.6,0.2-28.4-12.2-28.6-27.8c-0.2-15.6,12.2-28.4,27.8-28.6c15.6-0.2,28.4,12.2,28.6,27.8
			c0,0.1,0,0.3,0,0.4C570.3,205.5,557.8,218.1,542.3,218.2C542.3,218.2,542.3,218.2,542.3,218.2L542.3,218.2z"/>
		<path class="st5" d="M552.1,185.3l-11.8,12.5l-7.1-7.5"/>
		<path class="st1" d="M459.5,324.4v131.3c0,9.6-7.8,17.4-17.4,17.4c0,0,0,0,0,0H132.5c-9.6,0-17.4-7.8-17.4-17.3c0,0,0,0,0,0V324.4
			c0-9.6,7.8-17.4,17.4-17.4h309.6C451.7,307.1,459.5,314.9,459.5,324.4z"/>
		<path class="st6" d="M234.1,460.8h-91.2c-6.9,0-12.5-5.6-12.5-12.5V357c0-6.9,5.6-12.5,12.5-12.5h91.2c6.9,0,12.5,5.6,12.5,12.5
			v91.3C246.6,455.2,241,460.8,234.1,460.8C234.1,460.8,234.1,460.8,234.1,460.8L234.1,460.8z"/>
		<path class="st1" d="M459.5,324.4c0,2.4-1.9,4.4-4.4,4.4H119.5c-2.4,0-4.4-2-4.4-4.4c0-9.6,7.8-17.4,17.4-17.4h309.6
			C451.7,307.1,459.5,314.9,459.5,324.4z"/>
		<path class="st7" d="M137.5,318.4c0,1.9-1.6,3.5-3.5,3.5c-1.9,0-3.5-1.6-3.5-3.5c0-1.9,1.6-3.5,3.5-3.5
			C135.9,314.8,137.5,316.4,137.5,318.4C137.5,318.4,137.5,318.4,137.5,318.4z M151.1,318.4c0,1.9-1.6,3.5-3.5,3.5
			c-1.9,0-3.5-1.6-3.5-3.5c0-1.9,1.6-3.5,3.5-3.5C149.5,314.8,151.1,316.4,151.1,318.4z M164.7,318.4c0,1.9-1.6,3.5-3.5,3.5
			c-1.9,0-3.5-1.6-3.5-3.5c0-1.9,1.6-3.5,3.5-3.5S164.7,316.4,164.7,318.4L164.7,318.4z"/>
		
			<linearGradient id="SVGID_3_" gradientUnits="userSpaceOnUse" x1="297.502" y1="818.33" x2="297.122" y2="733.81" gradientTransform="matrix(1 0 0 1 0 -422)">
			<stop  offset="0" style="stop-color:#FFFFFF"/>
			<stop  offset="1" style="stop-color:#EEEEEE"/>
		</linearGradient>
		<path class="st8" d="M272.1,346.5h50.5c8.8,0,16,7.2,16,16l0,0c0,8.8-7.2,16-16,16h-50.5c-8.8,0-16-7.2-16-16l0,0
			C256.1,353.7,263.3,346.5,272.1,346.5z"/>
		
			<linearGradient id="SVGID_4_" gradientUnits="userSpaceOnUse" x1="297.5021" y1="897.24" x2="297.1221" y2="812.72" gradientTransform="matrix(1 0 0 1 0 -422)">
			<stop  offset="0" style="stop-color:#FFFFFF"/>
			<stop  offset="1" style="stop-color:#EEEEEE"/>
		</linearGradient>
		<path class="st9" d="M272.1,425.4h50.5c8.8,0,16,7.2,16,16l0,0c0,8.8-7.2,16-16,16h-50.5c-8.8,0-16-7.1-16-16l0,0
			C256.1,432.6,263.3,425.4,272.1,425.4z"/>
		
			<linearGradient id="SVGID_5_" gradientUnits="userSpaceOnUse" x1="281.362" y1="857.7899" x2="280.7321" y2="773.2599" gradientTransform="matrix(1 0 0 1 0 -422)">
			<stop  offset="0" style="stop-color:#FFFFFF"/>
			<stop  offset="1" style="stop-color:#EEEEEE"/>
		</linearGradient>
		<path class="st10" d="M272.1,386h18c8.8,0,16,7.1,16,16l0,0c0,8.8-7.2,16-16,16h-18c-8.8,0-16-7.2-16-16l0,0
			C256.1,393.1,263.3,386,272.1,386z"/>
		
			<linearGradient id="SVGID_6_" gradientUnits="userSpaceOnUse" x1="348.082" y1="857.79" x2="347.4521" y2="773.2599" gradientTransform="matrix(1 0 0 1 0 -422)">
			<stop  offset="0" style="stop-color:#FFFFFF"/>
			<stop  offset="1" style="stop-color:#EEEEEE"/>
		</linearGradient>
		<path class="st11" d="M338.8,386h18c8.8,0,15.9,7.2,16,16l0,0c0,8.8-7.1,16-16,16h-18c-8.8,0-16-7.2-16-16l0,0
			C322.9,393.2,330,386,338.8,386z"/>
		
			<linearGradient id="SVGID_7_" gradientUnits="userSpaceOnUse" x1="414.812" y1="857.7899" x2="414.1821" y2="773.2599" gradientTransform="matrix(1 0 0 1 0 -422)">
			<stop  offset="0" style="stop-color:#FFFFFF"/>
			<stop  offset="1" style="stop-color:#EEEEEE"/>
		</linearGradient>
		<path class="st12" d="M405.6,386h18c8.8,0,16,7.1,16,16l0,0c0,8.8-7.2,16-16,16h-18c-8.8,0-16-7.2-16-16l0,0
			C389.6,393.1,396.7,386,405.6,386z"/>
		
			<linearGradient id="SVGID_8_" gradientUnits="userSpaceOnUse" x1="398.457" y1="818.33" x2="398.077" y2="733.81" gradientTransform="matrix(1 0 0 1 0 -422)">
			<stop  offset="0" style="stop-color:#FFFFFF"/>
			<stop  offset="1" style="stop-color:#EEEEEE"/>
		</linearGradient>
		<path class="st13" d="M373.1,346.5h50.5c8.8,0,16,7.2,16,16l0,0c0,8.8-7.2,16-16,16h-50.5c-8.8,0-16-7.2-16-16l0,0
			C357.1,353.7,364.2,346.5,373.1,346.5z"/>
		
			<linearGradient id="SVGID_9_" gradientUnits="userSpaceOnUse" x1="398.4571" y1="897.24" x2="398.0771" y2="812.72" gradientTransform="matrix(1 0 0 1 0 -422)">
			<stop  offset="0" style="stop-color:#FFFFFF"/>
			<stop  offset="1" style="stop-color:#EEEEEE"/>
		</linearGradient>
		<path class="st14" d="M373.1,425.4h50.5c8.8,0,16,7.2,16,16l0,0c0,8.8-7.2,16-16,16h-50.5c-8.8,0-16-7.1-16-16l0,0
			C357.1,432.6,364.2,425.4,373.1,425.4z"/>
		<path class="st15" d="M168.7,415.5l-13.2-13.2l13.2-13.2 M208.2,389.2l13.2,13.2l-13.2,13.2 M193.6,382.6l-11,39.5"/>
		<path class="st1" d="M784.6,277.1v131.3c0,9.6-7.8,17.4-17.3,17.4c0,0,0,0,0,0H457.6c-9.6,0-17.4-7.8-17.4-17.3c0,0,0,0,0,0V277.1
			c0-9.6,7.8-17.4,17.4-17.4h309.6C776.8,259.7,784.6,267.5,784.6,277.1C784.6,277.1,784.6,277.1,784.6,277.1z"/>
		
			<linearGradient id="SVGID_10_" gradientUnits="userSpaceOnUse" x1="514.9778" y1="900.65" x2="511.3878" y2="592.6" gradientTransform="matrix(1 0 0 1 0 -422)">
			<stop  offset="0" style="stop-color:#FFFFFF"/>
			<stop  offset="1" style="stop-color:#EEEEEE"/>
		</linearGradient>
		<path class="st16" d="M559.1,413.4h-91.2c-6.9,0-12.5-5.6-12.5-12.5v-91.3c0-6.9,5.6-12.5,12.5-12.5h91.2
			c6.9,0,12.5,5.6,12.5,12.5v91.3C571.7,407.8,566.1,413.4,559.1,413.4z"/>
		<path class="st1" d="M784.6,277.1c0,2.4-2,4.4-4.4,4.4H444.6c-2.4,0-4.4-1.9-4.4-4.4l0,0c0-9.6,7.8-17.4,17.4-17.4h309.6
			C776.8,259.7,784.6,267.5,784.6,277.1L784.6,277.1z"/>
		<path class="st7" d="M462.6,271c0,1.9-1.6,3.5-3.5,3.5s-3.5-1.6-3.5-3.5c0-1.9,1.6-3.5,3.5-3.5c0,0,0,0,0,0
			C461,267.5,462.6,269.1,462.6,271z M476.2,271c0,1.9-1.6,3.5-3.5,3.5c-1.9,0-3.5-1.6-3.5-3.5c0-1.9,1.6-3.5,3.5-3.5
			C474.6,267.5,476.2,269.1,476.2,271z M489.8,271c0,1.9-1.6,3.5-3.5,3.5c-1.9,0-3.5-1.6-3.5-3.5c0-1.9,1.6-3.5,3.5-3.5
			C488.2,267.5,489.7,269.1,489.8,271z"/>
		
			<linearGradient id="SVGID_11_" gradientUnits="userSpaceOnUse" x1="622.5872" y1="770.95" x2="622.2072" y2="686.42" gradientTransform="matrix(1 0 0 1 0 -422)">
			<stop  offset="0" style="stop-color:#FFFFFF"/>
			<stop  offset="1" style="stop-color:#EEEEEE"/>
		</linearGradient>
		<path class="st17" d="M597.2,299.1h50.5c8.8,0,16,7.1,16,16l0,0c0,8.8-7.2,16-16,16h-50.5c-8.8,0-16-7.2-16-16l0,0
			C581.2,306.3,588.4,299.1,597.2,299.1z"/>
		
			<linearGradient id="SVGID_12_" gradientUnits="userSpaceOnUse" x1="622.5872" y1="849.86" x2="622.2072" y2="765.33" gradientTransform="matrix(1 0 0 1 0 -422)">
			<stop  offset="0" style="stop-color:#FFFFFF"/>
			<stop  offset="1" style="stop-color:#EEEEEE"/>
		</linearGradient>
		<path class="st18" d="M597.2,378h50.5c8.8,0,16,7.1,16,16l0,0c0,8.8-7.2,16-16,16h-50.5c-8.8,0-16-7.2-16-16l0,0
			C581.2,385.2,588.4,378,597.2,378z"/>
		
			<linearGradient id="SVGID_13_" gradientUnits="userSpaceOnUse" x1="606.4522" y1="810.3999" x2="605.8221" y2="725.8799" gradientTransform="matrix(1 0 0 1 0 -422)">
			<stop  offset="0" style="stop-color:#FFFFFF"/>
			<stop  offset="1" style="stop-color:#EEEEEE"/>
		</linearGradient>
		<path class="st19" d="M597.2,338.6h18c8.8,0,16,7.2,16,16l0,0c0,8.8-7.2,16-16,16h-18c-8.8,0-16-7.1-16-16l0,0
			C581.2,345.8,588.4,338.6,597.2,338.6z"/>
		
			<linearGradient id="SVGID_14_" gradientUnits="userSpaceOnUse" x1="673.1721" y1="810.3999" x2="672.5422" y2="725.8799" gradientTransform="matrix(1 0 0 1 0 -422)">
			<stop  offset="0" style="stop-color:#FFFFFF"/>
			<stop  offset="1" style="stop-color:#EEEEEE"/>
		</linearGradient>
		<path class="st20" d="M663.9,338.6h18c8.8,0,16,7.2,16,16l0,0c0,8.8-7.2,16-16,16h-18c-8.8,0-16-7.1-16-16l0,0
			C647.9,345.8,655.1,338.6,663.9,338.6z"/>
		
			<linearGradient id="SVGID_15_" gradientUnits="userSpaceOnUse" x1="739.9172" y1="810.3998" x2="739.2872" y2="725.8798" gradientTransform="matrix(1 0 0 1 0 -422)">
			<stop  offset="0" style="stop-color:#FFFFFF"/>
			<stop  offset="1" style="stop-color:#EEEEEE"/>
		</linearGradient>
		<path class="st21" d="M730.6,338.6h18c8.8,0,16,7.2,16,16l0,0c0,8.8-7.2,16-16,16h-18c-8.8,0-15.9-7.2-16-16l0,0
			C714.7,345.8,721.8,338.6,730.6,338.6z"/>
		
			<linearGradient id="SVGID_16_" gradientUnits="userSpaceOnUse" x1="723.5671" y1="770.9499" x2="723.1871" y2="686.4199" gradientTransform="matrix(1 0 0 1 0 -422)">
			<stop  offset="0" style="stop-color:#FFFFFF"/>
			<stop  offset="1" style="stop-color:#EEEEEE"/>
		</linearGradient>
		<path class="st22" d="M698.2,299.1h50.5c8.8,0,16,7.1,16,16l0,0c0,8.8-7.2,16-16,16h-50.5c-8.8,0-16-7.2-16-16l0,0
			C682.2,306.3,689.4,299.2,698.2,299.1z"/>
		
			<linearGradient id="SVGID_17_" gradientUnits="userSpaceOnUse" x1="723.5671" y1="849.8599" x2="723.1871" y2="765.3298" gradientTransform="matrix(1 0 0 1 0 -422)">
			<stop  offset="0" style="stop-color:#FFFFFF"/>
			<stop  offset="1" style="stop-color:#EEEEEE"/>
		</linearGradient>
		<path class="st23" d="M698.2,378h50.5c8.8,0,16,7.1,16,16l0,0c0,8.8-7.2,16-16,16h-50.5c-8.8,0-16-7.2-16-16l0,0
			C682.2,385.2,689.4,378.1,698.2,378z"/>
		<path class="st15" d="M493.8,368.2L480.6,355l13.2-13.2 M533.3,341.8l13.2,13.2l-13.2,13.2 M518.6,335.2l-11,39.5"/>
		<path class="st1" d="M482.6,132.7V264c0,9.6-7.8,17.4-17.4,17.4c0,0,0,0,0,0H155.7c-9.6,0-17.4-7.8-17.4-17.3c0,0,0,0,0,0V132.7
			c0-9.6,7.8-17.4,17.4-17.4l0,0h309.6C474.9,115.3,482.6,123.1,482.6,132.7z"/>
		<path class="st6" d="M257.2,269.1H166c-6.9,0-12.5-5.6-12.5-12.5v-91.3c0-6.9,5.6-12.5,12.5-12.5h91.2c6.9,0,12.5,5.6,12.5,12.5
			v91.3C269.7,263.5,264.1,269.1,257.2,269.1z"/>
		<path class="st1" d="M482.6,132.7c0,2.4-1.9,4.4-4.4,4.4l0,0H142.7c-2.4,0-4.4-1.9-4.4-4.4c0-9.6,7.8-17.4,17.4-17.4h309.6
			C474.9,115.3,482.6,123.1,482.6,132.7z"/>
		<path class="st7" d="M160.7,126.6c0,1.9-1.6,3.5-3.5,3.5c-1.9,0-3.5-1.6-3.5-3.5c0-1.9,1.6-3.5,3.5-3.5l0,0
			C159.1,123.1,160.7,124.7,160.7,126.6z M174.2,126.6c0,1.9-1.6,3.5-3.5,3.5c-1.9,0-3.5-1.6-3.5-3.5c0-1.9,1.6-3.5,3.5-3.5
			C172.7,123.1,174.2,124.7,174.2,126.6L174.2,126.6z M187.8,126.6c0,1.9-1.6,3.5-3.5,3.5c-1.9,0-3.5-1.6-3.5-3.5
			c0-1.9,1.6-3.5,3.5-3.5C186.2,123.1,187.8,124.7,187.8,126.6z"/>
		
			<linearGradient id="SVGID_18_" gradientUnits="userSpaceOnUse" x1="320.6372" y1="626.59" x2="320.2572" y2="542.06" gradientTransform="matrix(1 0 0 1 0 -422)">
			<stop  offset="0" style="stop-color:#FFFFFF"/>
			<stop  offset="1" style="stop-color:#EEEEEE"/>
		</linearGradient>
		<path class="st24" d="M295.3,154.8h50.5c8.8,0,16,7.1,16,16l0,0c0,8.8-7.1,16-16,16h-50.5c-8.8,0-16-7.1-16-16l0,0
			C279.3,161.9,286.4,154.8,295.3,154.8z"/>
		
			<linearGradient id="SVGID_19_" gradientUnits="userSpaceOnUse" x1="320.6172" y1="705.5001" x2="320.2372" y2="620.9701" gradientTransform="matrix(1 0 0 1 0 -422)">
			<stop  offset="0" style="stop-color:#FFFFFF"/>
			<stop  offset="1" style="stop-color:#EEEEEE"/>
		</linearGradient>
		<path class="st25" d="M295.3,233.7h50.5c8.8,0,15.9,7.2,16,15.9l0,0c0,8.8-7.1,16-16,16h-50.5c-8.8,0-16-7.2-16-16l0,0
			C279.3,240.8,286.4,233.7,295.3,233.7z"/>
		
			<linearGradient id="SVGID_20_" gradientUnits="userSpaceOnUse" x1="304.4883" y1="666.04" x2="303.8683" y2="581.52" gradientTransform="matrix(1 0 0 1 0 -422)">
			<stop  offset="0" style="stop-color:#FFFFFF"/>
			<stop  offset="1" style="stop-color:#EEEEEE"/>
		</linearGradient>
		<path class="st26" d="M295.3,194.2h18c8.8,0,16,7.1,16,16l0,0c0,8.8-7.1,16-16,16h-18c-8.8,0-16-7.1-16-16l0,0
			C279.3,201.4,286.4,194.2,295.3,194.2z"/>
		
			<linearGradient id="SVGID_21_" gradientUnits="userSpaceOnUse" x1="371.2224" y1="666.04" x2="370.5923" y2="581.52" gradientTransform="matrix(1 0 0 1 0 -422)">
			<stop  offset="0" style="stop-color:#FFFFFF"/>
			<stop  offset="1" style="stop-color:#EEEEEE"/>
		</linearGradient>
		<path class="st27" d="M362,194.2h18c8.8,0,16,7.1,16,16l0,0c0,8.8-7.1,16-16,16h-18c-8.8,0-16-7.1-16-16l0,0
			C346,201.4,353.2,194.2,362,194.2z"/>
		
			<linearGradient id="SVGID_22_" gradientUnits="userSpaceOnUse" x1="437.9424" y1="666.04" x2="437.3123" y2="581.52" gradientTransform="matrix(1 0 0 1 0 -422)">
			<stop  offset="0" style="stop-color:#FFFFFF"/>
			<stop  offset="1" style="stop-color:#EEEEEE"/>
		</linearGradient>
		<path class="st28" d="M428.7,194.2h18c8.8,0,16,7.1,16,16l0,0c0,8.8-7.1,16-16,16h-18c-8.8,0-16-7.1-16-16l0,0
			C412.7,201.4,419.9,194.2,428.7,194.2z"/>
		
			<linearGradient id="SVGID_23_" gradientUnits="userSpaceOnUse" x1="421.5972" y1="626.59" x2="421.2172" y2="542.06" gradientTransform="matrix(1 0 0 1 0 -422)">
			<stop  offset="0" style="stop-color:#FFFFFF"/>
			<stop  offset="1" style="stop-color:#EEEEEE"/>
		</linearGradient>
		<path class="st29" d="M396.2,154.8h50.5c8.8,0,16,7.1,16,16l0,0c0,8.8-7.1,16-16,16h-50.5c-8.8,0-16-7.1-16-16l0,0
			C380.3,161.9,387.4,154.8,396.2,154.8z"/>
		
			<linearGradient id="SVGID_24_" gradientUnits="userSpaceOnUse" x1="421.5971" y1="705.5" x2="421.2171" y2="620.97" gradientTransform="matrix(1 0 0 1 0 -422)">
			<stop  offset="0" style="stop-color:#FFFFFF"/>
			<stop  offset="1" style="stop-color:#EEEEEE"/>
		</linearGradient>
		<path class="st30" d="M396.2,233.7h50.5c8.8,0,16,7.1,16,15.9l0,0c0,8.8-7.2,16-16,16c0,0,0,0,0,0h-50.5c-8.8,0-16-7.2-16-16l0,0
			C380.2,240.8,387.4,233.7,396.2,233.7z"/>
		<path class="st15" d="M191.8,223.8l-13.2-13.2l13.2-13.2 M231.4,197.4l13.2,13.2l-13.2,13.2 M216.7,190.9l-11,39.5"/>
		<path class="st31" d="M418.9,313.2l13.5-4.1l58.9-1.7l13.3,3.7l-1.7,32.3l-30,19.2l-29.1-0.6l-18.3-16.7l-4.1-16.5L418.9,313.2
			L418.9,313.2z"/>
		<path class="st6" d="M588.8,365.2c-3.5-7.4-7.5-14.5-12-21.4c-7.2-11-18.1-18.9-30.7-22.4l-48-13c0,0-2.5,48-35.5,48
			s-39.5-45-39.5-45l-55.5,22.1c-1.9,0.7-14.8,5.2-29.8,37.3c-14.3,30.6-20.5,46.3-20.5,46.3l57.2,16.5l3.6,51.5l-1.2,29.4
			l173.7-0.4l-1-33.6l0.7-51.5l2.2,3.5l57.8-23.2C610.3,409.4,602.8,394.1,588.8,365.2L588.8,365.2z"/>
		<path class="st31" d="M457,330.3c14.1-0.3,30.1-27.7,30.1-27.7L488,232c0.7-20.3-11.9-37.6-34.7-37.8l-2.1,0.1
			c-21.2,1-38,16.4-38.6,35.3c-0.5,17.6-0.9,37.1-0.2,46.5c1.4,19.5,23.6,16.2,23.6,16.2s-0.1,9.8,0,15.5
			C436.3,320.7,451.3,330.7,457,330.3z"/>
		<path class="st31" d="M481,235.8c0.4-0.2,15.6-5.3,15.9,9.7c0.3,15-15.5,12.2-15.6,11.8S481,235.8,481,235.8L481,235.8z
			 M322.2,418.6L299,465.4c-8.4,16.8-1.5,37.3,15.3,45.7c4.7,2.3,9.9,3.6,15.2,3.6l67.3-1.1l2.4-33.3L348.3,468l19.3-36.4
			L322.2,418.6L322.2,418.6z M607.4,410.6c0,0,14.4,42.9,30.2,81.9c0.3,0.8,0.7,2.2,1,3c3.6,9.7-7.1,19.1-17.9,19.1l-91-0.2v-29.6
			l56.6-12l-20.5-45.5L607.4,410.6L607.4,410.6z"/>
		<path class="st32" d="M425,483.5c1.8-0.3,3.7-0.6,5.5-0.8c9.1-0.6,18,3.2,23.8,10.2c1.2,1.5,2.3,3,3.3,4.5
			c-0.1-0.5-0.4-0.9-0.6-1.4c-0.7-1.2-1.5-2.3-2.3-3.4c-5.8-7.3-14.9-11.2-24.2-10.3c-1.4,0.1-2.7,0.4-4.1,0.7
			C425.9,483.1,425.5,483.3,425,483.5z M428.1,476.3c1.9-0.6,3.8-0.9,5.8-1c4.7,0,9.4,1.3,13.4,3.8c4,2.6,7.6,5.6,10.8,9.1
			c1.2,1.3,2.2,2.3,3,3.1c0.3,0.4,0.7,0.8,1.1,1.1c-0.3-0.5-0.6-0.9-1-1.3c-0.9-1.1-1.9-2.2-2.8-3.3c-3.1-3.6-6.8-6.8-10.8-9.4
			c-4.1-2.6-8.9-3.9-13.7-3.7c-1.5,0.1-2.9,0.3-4.3,0.8c-0.4,0.1-0.7,0.3-1.1,0.4C428.3,476.2,428.2,476.2,428.1,476.3L428.1,476.3z
			"/>
		<path class="st31" d="M548.7,479.4h-13.1c0,0-29.5-10.6-35.5-9.6c-5.5,0.9-25.5,14.2-29.4,16.8c-0.5,0.3-0.8,0.7-1,1.2
			c-0.8,2.2,0.3,4.6,2.4,5.4l0.4,0.2l-0.2,0.6c-0.2,0.8-0.3,1.6-0.3,2.4c0.1,1.6,1.5,2.8,3.1,2.7c1-0.1,1.8-0.6,2.3-1.4l-0.8,1.4
			c-0.3,0.5-0.4,1.2-0.4,1.8l0.1,1.2c0.1,1.8,1.7,3.2,3.5,3.1c0.8-0.1,1.6-0.4,2.2-1.1c2.5-2.8,8-8.4,11.7-9c4-0.5,8.1-0.7,12.1-0.6
			c1.7,0,3.2,1,3.8,2.6c-2.2,0.2-17.5,8.1-22.9,11c-1.7,0.8-2.9,2.5-3.1,4.4c-0.2,1.7,0.6,3.5,4,2.7c7.2-1.7,20.2-7.6,20.2-7.6
			s6.7-1.9,11,1.1c6.1,4.3,8.9,5.9,14.1,4.1c3.2-1.1,6.2-2.5,9.1-4.2l10.3-1C552.2,507.5,562,483.1,548.7,479.4L548.7,479.4z"/>
		<path class="st32" d="M509.8,484.4c-1.8-0.4-3.7-0.6-5.5-0.8c-9.1-0.6-18,3.2-23.8,10.2c-2.2,2.6-3.2,4.6-3.3,4.5
			c0.2-0.5,0.4-0.9,0.6-1.4c5.4-9.3,15.7-14.7,26.5-13.7c1.4,0.1,2.7,0.3,4.1,0.7C508.8,484,509.3,484.2,509.8,484.4z M506.6,477.2
			c-1.9-0.6-3.8-0.9-5.8-1c-4.7,0-9.4,1.3-13.4,3.8c-4,2.6-7.6,5.6-10.8,9.1l-3,3.1c-0.3,0.4-0.7,0.8-1.1,1.1c0.3-0.5,0.6-0.9,1-1.3
			c0.7-0.8,1.6-1.9,2.8-3.3c3.1-3.6,6.8-6.8,10.8-9.3c4.1-2.6,8.9-3.9,13.7-3.7c1.5,0.1,2.9,0.3,4.3,0.8c0.4,0.1,0.7,0.3,1.1,0.4
			C506.4,477.1,506.5,477.2,506.6,477.2L506.6,477.2z"/>
		<path d="M531,515.4H393.9c-3.9,0-7.1-3.1-7.3-7l-4.1-94.4c-0.2-4,2.9-7.4,7-7.6c0.1,0,0.2,0,0.3,0h145.1c4,0,7.3,3.3,7.3,7.3
			c0,0.1,0,0.2,0,0.3l-3.8,94.4C538.2,512.3,534.9,515.4,531,515.4z"/>
		<path class="st33" d="M476.2,462.7c0,7.7-6.3,14-14,14s-14-6.3-14-14s6.3-14,14-14S476.2,455,476.2,462.7L476.2,462.7z"/>
		<path class="st31" d="M475.7,263.1H488v53h-12.3V263.1z"/>
		<path class="st6" d="M480.5,215.8c-2.2,2.9-6.2,3.5-9.4,4.1c-4.4,0.8-6.5,2.4-8.8,6.6c-1.4,2.7-2.9,5.7-5.4,7.2
			c-2.1,1.2-2-1.9-2.3-4.3c0-0.2-0.1-0.4-0.1-0.6c-0.5-1.9-2.5-1.6-3.1,0.3c-0.5,1.7-1.7,3.1-3.2,3.9c-0.2,0.1-0.5,0.2-0.8,0.2
			c-0.4-0.1-0.6-0.3-0.8-0.7c-0.5-0.7-1-1.5-1.4-2.2c-1.6-2.7-4.6-1.7-6.4,0.9c-1.1,1.6-2.4,3.3-4.3,3.6c-0.6,0.2-1.2,0-1.6-0.5
			c-0.4-0.7,0.2-1.4,0.1-2.1c-0.1-0.6-0.3-1.1-0.7-1.5c-1.2-2.2-4.1-2.3-5.8-0.5c-1.2,1.3-2.5,2.5-3.8,3.7c-0.6,0.5-1.4,1-1.9,0.5
			c-0.3-0.3-0.4-0.7-0.4-1.1c-0.3-2.1-0.6-4.1-0.9-6.2c-0.2-1.2-0.8-2.7-1.9-2.4c-0.5,0.1-0.8,0.7-1.1,1.2s-6.5,7.7-6.7,7.1
			c-1-4-2.9-7.6-3.9-11.6c-6.2-25.7,21.4-46.4,42.6-46.5c4.6-0.2,9.1,0.2,13.6,1.1c5.1,1.2,9.9,3.1,14.4,5.6
			c6.2,3.7,10.9,10.3,9.7,18.2"/>
		<path class="st6" d="M469.4,207.1c-3.1,3.4-3.9,8.2-4.2,12.8c-0.4,6.9,0.1,14,3.4,20c0.9,1.7,1.6,10.3,3,9.8
			c0.5-0.1,0.4-6.8,1.6-10.4c1.9-5.6,10.4-7.7,14.3-4.2c6.2,5.6,2.5,12.3,0.5,16.6c-1.2,2.5-3.1,5.4-3.5,8.1
			c-0.4,3.5-0.5,16,1.8,18.9c1.9,2.5,4-9.4,5.8-11.7c13-17.4,25.4-61.7,3.3-71.3c-3.4-1.5-13.8-2.2-16.9-0.4"/>
		<path class="st34" d="M569,99.9h-3.5c-0.8,0-1.5-0.7-1.5-1.5c0,0,0,0,0,0v-3.5c0-0.8,0.7-1.5,1.5-1.5l0,0h3.5
			c0.8,0,1.5,0.7,1.5,1.5v3.5C570.5,99.2,569.8,99.9,569,99.9L569,99.9z M556.8,99.9h-3.5c-0.8,0-1.5-0.7-1.5-1.5v-3.5
			c0-0.8,0.7-1.5,1.5-1.5l0,0h3.5c0.8,0,1.5,0.7,1.5,1.5v3.5C558.3,99.2,557.6,99.9,556.8,99.9C556.8,99.9,556.8,99.9,556.8,99.9
			L556.8,99.9z M544.6,99.9H541c-0.8,0-1.5-0.7-1.5-1.5v-3.5c0-0.8,0.7-1.5,1.5-1.5l0,0h3.5c0.8,0,1.5,0.7,1.5,1.5c0,0,0,0,0,0v3.5
			C546.1,99.2,545.4,99.9,544.6,99.9C544.5,99.9,544.5,99.9,544.6,99.9L544.6,99.9z M532.4,99.9h-3.5c-0.8,0-1.5-0.7-1.5-1.5v-3.5
			c0-0.8,0.7-1.5,1.5-1.5l0,0h3.5c0.8,0,1.5,0.7,1.5,1.5v3.5C533.9,99.2,533.2,99.9,532.4,99.9C532.4,99.9,532.4,99.9,532.4,99.9
			L532.4,99.9z M520.2,99.9h-3.5c-0.8,0-1.5-0.7-1.5-1.5v-3.5c0-0.9,0.7-1.5,1.5-1.5h0h3.5c0.8,0,1.5,0.7,1.5,1.5v3.5
			C521.8,99.2,521.1,99.9,520.2,99.9C520.2,99.9,520.2,99.9,520.2,99.9L520.2,99.9z M556.4,86.6h-3.6c-0.8,0-1.5-0.7-1.5-1.5v-3.5
			c0-0.8,0.7-1.5,1.5-1.5h3.5c0.8,0,1.5,0.7,1.5,1.5V85C557.9,85.9,557.2,86.6,556.4,86.6C556.3,86.6,556.3,86.6,556.4,86.6
			L556.4,86.6z M544.2,86.6h-3.5c-0.8,0-1.5-0.7-1.5-1.5v-3.5c0-0.8,0.7-1.5,1.5-1.5h3.5c0.8,0,1.5,0.7,1.5,1.5V85
			C545.7,85.9,545,86.6,544.2,86.6C544.1,86.6,544.1,86.6,544.2,86.6L544.2,86.6z M532,86.6h-3.5c-0.8,0-1.5-0.7-1.5-1.5v-3.5
			c0-0.8,0.7-1.5,1.5-1.5h3.5c0.8,0,1.5,0.7,1.5,1.5V85C533.5,85.9,532.8,86.6,532,86.6L532,86.6z M544.6,114.2H541
			c-0.8,0-1.5-0.7-1.5-1.5v-3.5c0-0.8,0.7-1.5,1.5-1.5l0,0h3.5c0.8,0,1.5,0.7,1.5,1.5c0,0,0,0,0,0v3.5
			C546.1,113.5,545.4,114.2,544.6,114.2C544.5,114.2,544.5,114.2,544.6,114.2L544.6,114.2z M532.4,114.2h-3.5
			c-0.8,0-1.5-0.7-1.5-1.5v-3.5c0-0.8,0.7-1.5,1.5-1.5l0,0h3.5c0.8,0,1.5,0.7,1.5,1.5v3.5C533.9,113.5,533.2,114.2,532.4,114.2
			C532.4,114.2,532.4,114.2,532.4,114.2L532.4,114.2z"/>
		<path class="st35" d="M204,511h517c2.8,0,5,2.2,5,5l0,0c0,2.8-2.2,5-5,5H204c-2.8,0-5-2.2-5-5l0,0C199,513.2,201.2,511,204,511z"
			/>
		<path class="st35" d="M668.8,492.1l26.4-26.4c1-1,2.5-1,3.5,0v0c1,1,1,2.5,0,3.5l-26.4,26.4c-1,1-2.5,1-3.5,0v0
			C667.8,494.7,667.8,493.1,668.8,492.1z"/>
		<path class="st35" d="M685,492.2l7.6-7.6c1-1,2.5-1,3.5,0l0,0c1,1,1,2.5,0,3.5l-7.6,7.6c-1,1-2.5,1-3.5,0l0,0
			C684,494.8,684,493.2,685,492.2z"/>
	</g>
</g>
</svg>
