<svg xmlns="http://www.w3.org/2000/svg" viewBox="0 0 43 43">
<g>
<path class="Insta-svg" d="M21.48,3.87c5.73,0,6.41,0,8.68.13C36,4.26,38.7,7,39,12.8c.11,2.26.13,2.95.13,8.68s0,6.41-.13,8.68c-.26,5.77-3,8.54-8.8,8.8-2.27.11-2.94.13-8.68.13s-6.42,0-8.68-.13C7,38.7,4.26,35.92,4,30.16c-.1-2.27-.12-2.95-.12-8.68s0-6.42.12-8.68C4.26,7,7,4.26,12.8,4,15.06,3.89,15.74,3.87,21.48,3.87Zm0-3.87c-5.84,0-6.57,0-8.86.13C4.82.49.49,4.81.13,12.62,0,14.91,0,15.64,0,21.48S0,28,.13,30.33c.36,7.8,4.68,12.14,12.49,12.5,2.29.1,3,.13,8.86.13s6.56,0,8.85-.13c7.8-.36,12.14-4.69,12.5-12.5.1-2.29.13-3,.13-8.85s0-6.57-.13-8.86C42.48,4.83,38.14.49,30.34.13,28,0,27.31,0,21.48,0Zm0,10.45a11,11,0,1,0,11,11A11,11,0,0,0,21.48,10.45Zm0,18.19a7.16,7.16,0,1,1,7.16-7.16A7.16,7.16,0,0,1,21.48,28.64ZM32.94,7.44A2.58,2.58,0,1,0,35.52,10,2.58,2.58,0,0,0,32.94,7.44Z"/>
</g></svg>