<svg xmlns="http://www.w3.org/2000/svg" viewBox="0 0 64 64">
<g id="Layer_2" data-name="Layer 2"><g id="Layer_1-2" data-name="Layer 1">
<path class="Serv-SVG" d="M62.05,52.65,30.2,20.79a7.17,7.17,0,0,1-2.09-5.64A14.06,14.06,0,0,0,10.09.58L18.54,9c.92,4.24-5.22,10.45-9.51,9.51L.58,10.09a14,14,0,0,0,14.58,18,7.2,7.2,0,0,1,5.63,2.09L52.65,62.05a6.65,6.65,0,1,0,9.4-9.4Zm-2.77,6.64a2.76,2.76,0,0,1-3.89-3.92A2.76,2.76,0,0,1,59.28,59.29ZM36.17,19.23,50.38,5.05A8,8,0,0,1,61.67,16.34L47.47,30.52ZM26.76,43.71,12.82,57.54a8.83,8.83,0,0,0-1.53,2.06l-.8,1.55L4.89,64,2.67,61.78,5.4,56.05,7,55.25a8.61,8.61,0,0,0,2.1-1.49L23,39.93Z"/>
</g></g></svg>